M48
;Layer_Color=9474304
;FILE_FORMAT=2:5
INCH,LZ
;TYPE=PLATED
T1F00S00C0.01000
T2F00S00C0.02000
T3F00S00C0.02800
T4F00S00C0.03150
T5F00S00C0.03504
T6F00S00C0.03937
T7F00S00C0.04016
T8F00S00C0.12000
%
T01
X01205Y00845
X0152Y0099
X01525Y01105
X0149
X01225Y01345
X0122Y01385
X0121891Y0143609
X01155Y0137
X0156455Y0110545
X016Y01105
X0182Y0123
Y01275
X01695Y0226
X01605Y02245
X0163Y0253
X0168Y02755
X01375Y02685
X0124
X01245Y0255
X0138
X01475Y0224
X01405Y0213
X0107206Y02175
Y0222167
Y02273
Y02315
X01065Y0267
Y0276
X01185Y0295
T02
X01075Y00875
X01405Y0084
X0141Y01015
X0147
X01375Y0107
X0136Y01275
X0142
X013Y01455
X01165Y0123
X0159Y01315
X01655Y0128
X01695Y0148
X0164083Y0103583
X0177Y00855
X01805Y01575
X0173Y01925
X0155059
X0138
X0134Y01975
X01185
X01235Y02125
X0129Y02165
X0145Y0171
T03
X01625Y01795
X01685Y01815
T04
X0106886Y0112634
Y0120508
Y0128382
Y0136256
Y014413
Y0152004
X01935
Y014413
Y0136256
Y0128382
Y0120508
Y0112634
Y0159878
Y0167752
Y0175626
Y01835
X0106886
Y0175626
Y0167752
Y0159878
T05
X0183Y02235
X0193
T06
X01865Y0244281
Y0252155
Y0260029
Y0267903
T07
X01455Y00735
X01555
X01655
X01755
T08
X0108Y0073
X01915
X0191Y03005
X01075
M30
