%TF.GenerationSoftware,Altium Limited,Altium Designer,20.0.9 (164)*%
G04 Layer_Color=16711935*
%FSLAX26Y26*%
%MOIN*%
%TF.FileFunction,Other,Mechanical_13*%
%TF.Part,Single*%
G01*
G75*
%TA.AperFunction,NonConductor*%
%ADD107C,0.003937*%
D107*
X1368268Y1326417D02*
G03*
X1368268Y1326417I-19685J0D01*
G01*
X1555000Y2025000D02*
G03*
X1555000Y2025000I-19685J0D01*
G01*
X1342677Y2116693D02*
G03*
X1342677Y2116693I-19685J0D01*
G01*
X1132520Y841024D02*
X1197480D01*
X1132520Y968976D02*
X1197480D01*
Y841024D02*
Y968976D01*
X1132520Y841024D02*
Y968976D01*
X1212008Y696535D02*
Y763465D01*
X1337992Y696535D02*
Y763465D01*
X1212008D02*
X1337992D01*
X1212008Y696535D02*
X1337992D01*
X1788071Y2281063D02*
X1971929D01*
Y2188937D02*
Y2281063D01*
X1788071Y2188937D02*
X1971929D01*
X1039567Y971929D02*
X1110433D01*
X1039567Y838071D02*
X1110433D01*
X1039567D02*
Y971929D01*
X1110433Y838071D02*
Y971929D01*
X1633071Y1539567D02*
Y1610433D01*
X1766929Y1539567D02*
Y1610433D01*
X1633071Y1539567D02*
X1766929D01*
X1633071Y1610433D02*
X1766929D01*
X1440433Y2093071D02*
Y2226929D01*
X1369567Y2093071D02*
Y2226929D01*
Y2093071D02*
X1440433D01*
X1369567Y2226929D02*
X1440433D01*
X1384252Y1960433D02*
X1518110D01*
X1384252Y1889567D02*
X1518110D01*
Y1960433D01*
X1384252Y1889567D02*
Y1960433D01*
X1583071Y1889567D02*
X1716929D01*
X1583071Y1960433D02*
X1716929D01*
X1583071Y1889567D02*
Y1960433D01*
X1716929Y1889567D02*
Y1960433D01*
X1397520Y785000D02*
X1812480D01*
X1397520Y685000D02*
Y785000D01*
Y685000D02*
X1812480D01*
Y785000D01*
X1313150Y1361850D02*
X1706850D01*
X1313150Y968150D02*
X1706850D01*
X1313150D02*
Y1361850D01*
X1706850Y968150D02*
Y1361850D01*
X1521535Y2227284D02*
Y2262716D01*
X1588465Y2227284D02*
Y2262716D01*
X1521535Y2227284D02*
X1588465D01*
X1521535Y2262716D02*
X1588465D01*
X1493347Y1653189D02*
Y1676811D01*
X1536654Y1653189D02*
Y1676811D01*
X1493347Y1653189D02*
X1536654D01*
X1493347Y1676811D02*
X1536654D01*
X1406653Y1653189D02*
Y1676811D01*
X1363346Y1653189D02*
Y1676811D01*
X1406653D01*
X1363346Y1653189D02*
X1406653D01*
X1694567Y2670315D02*
X1765433D01*
X1694567Y2709685D02*
X1765433D01*
Y2670315D02*
Y2709685D01*
X1694567Y2670315D02*
Y2709685D01*
X1709331Y2824173D02*
X1750669D01*
X1709331Y2845827D02*
X1750669D01*
Y2824173D02*
Y2845827D01*
X1709331Y2824173D02*
Y2845827D01*
X1696535Y2737284D02*
Y2772716D01*
X1763465Y2737284D02*
Y2772716D01*
X1696535D02*
X1763465D01*
X1696535Y2737284D02*
X1763465D01*
X1786457Y1691693D02*
X1843543D01*
X1786457Y1778307D02*
X1843543D01*
Y1691693D02*
Y1778307D01*
X1786457Y1691693D02*
Y1778307D01*
X1411693Y1796457D02*
Y1853543D01*
X1498307Y1796457D02*
Y1853543D01*
X1411693Y1796457D02*
X1498307D01*
X1411693Y1853543D02*
X1498307D01*
X1180827Y1284331D02*
Y1325669D01*
X1159173Y1284331D02*
Y1325669D01*
Y1284331D02*
X1180827D01*
X1159173Y1325669D02*
X1180827D01*
X1824173Y1014331D02*
Y1055669D01*
X1845827Y1014331D02*
Y1055669D01*
X1824173D02*
X1845827D01*
X1824173Y1014331D02*
X1845827D01*
X1659331Y865827D02*
X1700669D01*
X1659331Y844173D02*
X1700669D01*
Y865827D01*
X1659331Y844173D02*
Y865827D01*
X1619055Y1991575D02*
Y2188425D01*
X1500945Y1991575D02*
Y2188425D01*
Y1991575D02*
X1619055D01*
X1500945Y2188425D02*
X1619055D01*
X1496772Y2488110D02*
Y2751890D01*
X1251890Y2488110D02*
Y2751890D01*
X1496772D01*
X1251890Y2488110D02*
X1496772D01*
X1351575Y1492008D02*
Y1617992D01*
X1548425Y1492008D02*
Y1617992D01*
X1351575D02*
X1548425D01*
X1351575Y1492008D02*
X1548425D01*
X1161575Y2081260D02*
Y2238740D01*
X1358425Y2081260D02*
Y2238740D01*
X1161575D02*
X1358425D01*
X1161575Y2081260D02*
X1358425D01*
X1798071Y2366039D02*
Y2755803D01*
X1975236D01*
X1798071Y2366039D02*
X1975236D01*
Y2755803D01*
X1581181Y2375158D02*
Y2894843D01*
X1028032Y2375158D02*
X1581181D01*
X1028032D02*
Y2894843D01*
X1581181D01*
X1706535Y2495039D02*
X1773465D01*
X1706535Y2624961D02*
X1773465D01*
X1706535Y2495039D02*
Y2624961D01*
X1773465Y2495039D02*
Y2624961D01*
%TF.MD5,8ca573a6318855c8078f7228a9233695*%
M02*
