%TF.GenerationSoftware,Altium Limited,Altium Designer,20.0.9 (164)*%
G04 Layer_Color=16711935*
%FSLAX26Y26*%
%MOIN*%
%TF.FileFunction,Other,Mechanical_1*%
%TF.Part,Single*%
G01*
G75*
G36*
X1480000Y2610795D02*
X1479979Y2610046D01*
X1479958Y2609360D01*
X1479917Y2608694D01*
X1479854Y2608091D01*
X1479771Y2607509D01*
X1479688Y2606989D01*
X1479605Y2606510D01*
X1479522Y2606074D01*
X1479438Y2605678D01*
X1479355Y2605346D01*
X1479272Y2605054D01*
X1479189Y2604826D01*
X1479126Y2604638D01*
X1479085Y2604493D01*
X1479043Y2604410D01*
Y2604389D01*
X1478835Y2603952D01*
X1478627Y2603557D01*
X1478378Y2603182D01*
X1478128Y2602829D01*
X1477858Y2602517D01*
X1477587Y2602226D01*
X1477317Y2601955D01*
X1477046Y2601706D01*
X1476797Y2601498D01*
X1476547Y2601310D01*
X1476339Y2601144D01*
X1476152Y2601019D01*
X1475986Y2600915D01*
X1475882Y2600853D01*
X1475798Y2600811D01*
X1475778Y2600790D01*
X1475341Y2600582D01*
X1474862Y2600395D01*
X1474384Y2600229D01*
X1473885Y2600083D01*
X1473406Y2599958D01*
X1472907Y2599854D01*
X1472429Y2599792D01*
X1471971Y2599709D01*
X1471555Y2599667D01*
X1471160Y2599626D01*
X1470786Y2599605D01*
X1470494Y2599584D01*
X1470245Y2599563D01*
X1469891D01*
X1469205Y2599584D01*
X1468581Y2599626D01*
X1467957Y2599688D01*
X1467395Y2599792D01*
X1466875Y2599896D01*
X1466376Y2600021D01*
X1465918Y2600146D01*
X1465523Y2600270D01*
X1465149Y2600395D01*
X1464837Y2600541D01*
X1464566Y2600645D01*
X1464338Y2600749D01*
X1464150Y2600853D01*
X1464026Y2600915D01*
X1463942Y2600957D01*
X1463922Y2600978D01*
X1463506Y2601248D01*
X1463131Y2601539D01*
X1462778Y2601851D01*
X1462466Y2602142D01*
X1462174Y2602454D01*
X1461925Y2602766D01*
X1461675Y2603058D01*
X1461488Y2603349D01*
X1461301Y2603619D01*
X1461155Y2603869D01*
X1461030Y2604098D01*
X1460926Y2604285D01*
X1460864Y2604451D01*
X1460802Y2604555D01*
X1460760Y2604638D01*
Y2604659D01*
X1460614Y2605096D01*
X1460469Y2605574D01*
X1460261Y2606594D01*
X1460094Y2607613D01*
X1460032Y2608112D01*
X1459990Y2608590D01*
X1459949Y2609048D01*
X1459928Y2609464D01*
X1459907Y2609838D01*
Y2610150D01*
X1459886Y2610421D01*
Y2610629D01*
Y2610754D01*
Y2610774D01*
Y2610795D01*
Y2625605D01*
X1463277D01*
Y2610816D01*
X1463298Y2609942D01*
X1463339Y2609152D01*
X1463422Y2608424D01*
X1463526Y2607758D01*
X1463651Y2607176D01*
X1463776Y2606635D01*
X1463922Y2606157D01*
X1464067Y2605762D01*
X1464234Y2605387D01*
X1464379Y2605096D01*
X1464504Y2604846D01*
X1464629Y2604638D01*
X1464733Y2604493D01*
X1464816Y2604389D01*
X1464858Y2604326D01*
X1464878Y2604306D01*
X1465190Y2604014D01*
X1465565Y2603744D01*
X1465960Y2603515D01*
X1466376Y2603328D01*
X1466813Y2603162D01*
X1467250Y2603037D01*
X1467686Y2602912D01*
X1468123Y2602829D01*
X1468539Y2602766D01*
X1468914Y2602704D01*
X1469267Y2602683D01*
X1469579Y2602642D01*
X1469829D01*
X1470016Y2602621D01*
X1470182D01*
X1470973Y2602662D01*
X1471680Y2602746D01*
X1472013Y2602829D01*
X1472304Y2602891D01*
X1472595Y2602974D01*
X1472845Y2603058D01*
X1473074Y2603120D01*
X1473282Y2603203D01*
X1473469Y2603286D01*
X1473614Y2603349D01*
X1473739Y2603390D01*
X1473822Y2603432D01*
X1473864Y2603474D01*
X1473885D01*
X1474405Y2603827D01*
X1474842Y2604222D01*
X1475216Y2604618D01*
X1475507Y2605013D01*
X1475736Y2605366D01*
X1475819Y2605512D01*
X1475882Y2605658D01*
X1475944Y2605762D01*
X1475986Y2605845D01*
X1476006Y2605886D01*
Y2605907D01*
X1476110Y2606219D01*
X1476214Y2606573D01*
X1476277Y2606947D01*
X1476360Y2607342D01*
X1476464Y2608154D01*
X1476526Y2608965D01*
X1476568Y2609339D01*
Y2609672D01*
X1476589Y2610005D01*
X1476610Y2610275D01*
Y2610504D01*
Y2610670D01*
Y2610774D01*
Y2610816D01*
Y2625605D01*
X1480000D01*
Y2610795D01*
D02*
G37*
G36*
X1456538Y2609027D02*
Y2606136D01*
X1445430D01*
Y2600000D01*
X1442290D01*
Y2606136D01*
X1438837D01*
Y2609027D01*
X1442290D01*
Y2625605D01*
X1444848D01*
X1456538Y2609027D01*
D02*
G37*
G36*
X1258029Y2146246D02*
X1258466Y2146205D01*
X1258861Y2146142D01*
X1259256Y2146080D01*
X1259630Y2145976D01*
X1259963Y2145872D01*
X1260275Y2145747D01*
X1260566Y2145643D01*
X1260816Y2145518D01*
X1261045Y2145394D01*
X1261232Y2145290D01*
X1261398Y2145206D01*
X1261523Y2145123D01*
X1261606Y2145061D01*
X1261669Y2145019D01*
X1261690Y2144998D01*
X1261981Y2144749D01*
X1262272Y2144499D01*
X1262501Y2144208D01*
X1262730Y2143917D01*
X1262938Y2143626D01*
X1263104Y2143334D01*
X1263270Y2143043D01*
X1263416Y2142773D01*
X1263520Y2142502D01*
X1263624Y2142274D01*
X1263707Y2142045D01*
X1263770Y2141858D01*
X1263811Y2141691D01*
X1263853Y2141587D01*
X1263874Y2141504D01*
Y2141483D01*
X1264186Y2142107D01*
X1264539Y2142627D01*
X1264893Y2143085D01*
X1265246Y2143459D01*
X1265538Y2143750D01*
X1265787Y2143958D01*
X1265891Y2144042D01*
X1265954Y2144083D01*
X1265995Y2144125D01*
X1266016D01*
X1266286Y2144291D01*
X1266536Y2144416D01*
X1267077Y2144645D01*
X1267576Y2144811D01*
X1268054Y2144915D01*
X1268262Y2144936D01*
X1268450Y2144978D01*
X1268616Y2144998D01*
X1268782D01*
X1268886Y2145019D01*
X1268970D01*
X1269032D01*
X1269053D01*
X1269386D01*
X1269698Y2144978D01*
X1270301Y2144874D01*
X1270862Y2144728D01*
X1271362Y2144562D01*
X1271570Y2144458D01*
X1271757Y2144374D01*
X1271923Y2144291D01*
X1272069Y2144229D01*
X1272194Y2144166D01*
X1272277Y2144125D01*
X1272318Y2144104D01*
X1272339Y2144083D01*
X1272901Y2143709D01*
X1273379Y2143272D01*
X1273795Y2142814D01*
X1274149Y2142378D01*
X1274419Y2141982D01*
X1274544Y2141816D01*
X1274627Y2141670D01*
X1274710Y2141546D01*
X1274752Y2141462D01*
X1274794Y2141400D01*
Y2141379D01*
X1274960Y2141046D01*
X1275106Y2140714D01*
X1275314Y2140027D01*
X1275480Y2139382D01*
X1275605Y2138779D01*
X1275626Y2138509D01*
X1275667Y2138259D01*
X1275688Y2138051D01*
Y2137864D01*
X1275709Y2137718D01*
Y2137510D01*
X1275688Y2136949D01*
X1275626Y2136429D01*
X1275542Y2135909D01*
X1275438Y2135430D01*
X1275314Y2134994D01*
X1275147Y2134557D01*
X1275002Y2134182D01*
X1274835Y2133829D01*
X1274669Y2133517D01*
X1274523Y2133226D01*
X1274378Y2132976D01*
X1274232Y2132789D01*
X1274128Y2132622D01*
X1274045Y2132518D01*
X1273982Y2132435D01*
X1273962Y2132414D01*
X1273629Y2132040D01*
X1273254Y2131728D01*
X1272859Y2131416D01*
X1272464Y2131146D01*
X1272048Y2130917D01*
X1271653Y2130688D01*
X1271258Y2130501D01*
X1270862Y2130355D01*
X1270488Y2130210D01*
X1270155Y2130106D01*
X1269864Y2130002D01*
X1269594Y2129939D01*
X1269386Y2129877D01*
X1269219Y2129835D01*
X1269115Y2129814D01*
X1269074D01*
X1268512Y2132955D01*
X1268928Y2133038D01*
X1269323Y2133122D01*
X1269698Y2133226D01*
X1270030Y2133350D01*
X1270342Y2133475D01*
X1270613Y2133600D01*
X1270883Y2133725D01*
X1271112Y2133870D01*
X1271299Y2133995D01*
X1271486Y2134120D01*
X1271632Y2134224D01*
X1271757Y2134328D01*
X1271840Y2134390D01*
X1271902Y2134453D01*
X1271944Y2134494D01*
X1271965Y2134515D01*
X1272173Y2134744D01*
X1272360Y2134994D01*
X1272506Y2135264D01*
X1272630Y2135514D01*
X1272838Y2136034D01*
X1272984Y2136512D01*
X1273026Y2136741D01*
X1273067Y2136949D01*
X1273088Y2137136D01*
X1273109Y2137282D01*
X1273130Y2137406D01*
Y2137594D01*
X1273109Y2137926D01*
X1273088Y2138259D01*
X1272942Y2138842D01*
X1272776Y2139362D01*
X1272672Y2139590D01*
X1272568Y2139798D01*
X1272443Y2139986D01*
X1272339Y2140152D01*
X1272256Y2140277D01*
X1272173Y2140402D01*
X1272090Y2140485D01*
X1272027Y2140547D01*
X1272006Y2140589D01*
X1271986Y2140610D01*
X1271757Y2140818D01*
X1271528Y2141005D01*
X1271299Y2141150D01*
X1271050Y2141296D01*
X1270821Y2141421D01*
X1270571Y2141504D01*
X1270114Y2141650D01*
X1269718Y2141733D01*
X1269552Y2141754D01*
X1269406Y2141774D01*
X1269282Y2141795D01*
X1269198D01*
X1269136D01*
X1269115D01*
X1268720Y2141774D01*
X1268366Y2141733D01*
X1268013Y2141650D01*
X1267701Y2141546D01*
X1267410Y2141421D01*
X1267139Y2141275D01*
X1266910Y2141130D01*
X1266702Y2140984D01*
X1266494Y2140838D01*
X1266349Y2140693D01*
X1266203Y2140547D01*
X1266099Y2140422D01*
X1265995Y2140318D01*
X1265933Y2140235D01*
X1265912Y2140194D01*
X1265891Y2140173D01*
X1265704Y2139861D01*
X1265558Y2139549D01*
X1265413Y2139237D01*
X1265288Y2138925D01*
X1265101Y2138322D01*
X1264976Y2137760D01*
X1264934Y2137510D01*
X1264914Y2137282D01*
X1264893Y2137074D01*
X1264872Y2136886D01*
X1264851Y2136741D01*
Y2136387D01*
X1264872Y2136221D01*
X1264893Y2136096D01*
Y2136034D01*
X1262126Y2135701D01*
X1262230Y2136179D01*
X1262314Y2136595D01*
X1262376Y2136970D01*
X1262418Y2137302D01*
X1262438Y2137552D01*
X1262459Y2137739D01*
Y2137906D01*
X1262438Y2138301D01*
X1262397Y2138696D01*
X1262334Y2139050D01*
X1262230Y2139382D01*
X1262126Y2139715D01*
X1262022Y2140006D01*
X1261877Y2140277D01*
X1261752Y2140526D01*
X1261627Y2140755D01*
X1261502Y2140942D01*
X1261378Y2141109D01*
X1261274Y2141254D01*
X1261170Y2141358D01*
X1261107Y2141442D01*
X1261066Y2141483D01*
X1261045Y2141504D01*
X1260774Y2141754D01*
X1260483Y2141982D01*
X1260192Y2142170D01*
X1259901Y2142336D01*
X1259610Y2142482D01*
X1259298Y2142586D01*
X1259027Y2142690D01*
X1258736Y2142752D01*
X1258486Y2142814D01*
X1258237Y2142856D01*
X1258029Y2142898D01*
X1257842Y2142918D01*
X1257696Y2142939D01*
X1257592D01*
X1257509D01*
X1257488D01*
X1257072Y2142918D01*
X1256677Y2142877D01*
X1256302Y2142794D01*
X1255928Y2142690D01*
X1255595Y2142586D01*
X1255283Y2142461D01*
X1254992Y2142315D01*
X1254742Y2142170D01*
X1254493Y2142024D01*
X1254285Y2141878D01*
X1254118Y2141754D01*
X1253952Y2141650D01*
X1253848Y2141546D01*
X1253744Y2141462D01*
X1253702Y2141421D01*
X1253682Y2141400D01*
X1253411Y2141109D01*
X1253182Y2140797D01*
X1252974Y2140485D01*
X1252808Y2140173D01*
X1252662Y2139861D01*
X1252538Y2139549D01*
X1252434Y2139258D01*
X1252350Y2138966D01*
X1252288Y2138696D01*
X1252246Y2138446D01*
X1252205Y2138218D01*
X1252184Y2138030D01*
Y2137864D01*
X1252163Y2137760D01*
Y2137656D01*
X1252184Y2137302D01*
X1252205Y2136970D01*
X1252350Y2136366D01*
X1252538Y2135826D01*
X1252642Y2135576D01*
X1252746Y2135347D01*
X1252850Y2135160D01*
X1252954Y2134973D01*
X1253058Y2134827D01*
X1253141Y2134702D01*
X1253224Y2134598D01*
X1253286Y2134536D01*
X1253307Y2134494D01*
X1253328Y2134474D01*
X1253578Y2134245D01*
X1253827Y2134016D01*
X1254118Y2133829D01*
X1254430Y2133642D01*
X1255075Y2133330D01*
X1255699Y2133080D01*
X1256011Y2132976D01*
X1256282Y2132893D01*
X1256531Y2132810D01*
X1256760Y2132747D01*
X1256947Y2132706D01*
X1257072Y2132664D01*
X1257176Y2132643D01*
X1257197D01*
X1256781Y2129502D01*
X1256198Y2129586D01*
X1255637Y2129710D01*
X1255117Y2129856D01*
X1254618Y2130022D01*
X1254160Y2130230D01*
X1253723Y2130438D01*
X1253328Y2130667D01*
X1252974Y2130896D01*
X1252642Y2131104D01*
X1252371Y2131312D01*
X1252122Y2131520D01*
X1251934Y2131686D01*
X1251768Y2131832D01*
X1251664Y2131936D01*
X1251581Y2132019D01*
X1251560Y2132040D01*
X1251206Y2132477D01*
X1250894Y2132914D01*
X1250645Y2133392D01*
X1250416Y2133850D01*
X1250208Y2134328D01*
X1250042Y2134786D01*
X1249917Y2135243D01*
X1249813Y2135680D01*
X1249730Y2136075D01*
X1249667Y2136450D01*
X1249626Y2136782D01*
X1249605Y2137074D01*
X1249584Y2137302D01*
X1249563Y2137490D01*
Y2137635D01*
X1249584Y2138322D01*
X1249667Y2138966D01*
X1249771Y2139590D01*
X1249938Y2140173D01*
X1250104Y2140714D01*
X1250291Y2141234D01*
X1250520Y2141691D01*
X1250728Y2142128D01*
X1250936Y2142502D01*
X1251165Y2142835D01*
X1251352Y2143126D01*
X1251539Y2143376D01*
X1251685Y2143563D01*
X1251789Y2143709D01*
X1251872Y2143792D01*
X1251893Y2143813D01*
X1252350Y2144250D01*
X1252808Y2144624D01*
X1253286Y2144957D01*
X1253765Y2145227D01*
X1254243Y2145477D01*
X1254722Y2145664D01*
X1255179Y2145830D01*
X1255616Y2145955D01*
X1256011Y2146059D01*
X1256386Y2146142D01*
X1256718Y2146184D01*
X1257010Y2146226D01*
X1257238Y2146246D01*
X1257426Y2146267D01*
X1257530D01*
X1257571D01*
X1258029Y2146246D01*
D02*
G37*
G36*
X1275605Y2121723D02*
X1260816D01*
X1259942Y2121702D01*
X1259152Y2121661D01*
X1258424Y2121578D01*
X1257758Y2121474D01*
X1257176Y2121349D01*
X1256635Y2121224D01*
X1256157Y2121078D01*
X1255762Y2120933D01*
X1255387Y2120766D01*
X1255096Y2120621D01*
X1254846Y2120496D01*
X1254638Y2120371D01*
X1254493Y2120267D01*
X1254389Y2120184D01*
X1254326Y2120142D01*
X1254306Y2120122D01*
X1254014Y2119810D01*
X1253744Y2119435D01*
X1253515Y2119040D01*
X1253328Y2118624D01*
X1253162Y2118187D01*
X1253037Y2117750D01*
X1252912Y2117314D01*
X1252829Y2116877D01*
X1252766Y2116461D01*
X1252704Y2116086D01*
X1252683Y2115733D01*
X1252642Y2115421D01*
Y2115171D01*
X1252621Y2114984D01*
Y2114818D01*
X1252662Y2114027D01*
X1252746Y2113320D01*
X1252829Y2112987D01*
X1252891Y2112696D01*
X1252974Y2112405D01*
X1253058Y2112155D01*
X1253120Y2111926D01*
X1253203Y2111718D01*
X1253286Y2111531D01*
X1253349Y2111386D01*
X1253390Y2111261D01*
X1253432Y2111178D01*
X1253474Y2111136D01*
Y2111115D01*
X1253827Y2110595D01*
X1254222Y2110158D01*
X1254618Y2109784D01*
X1255013Y2109493D01*
X1255366Y2109264D01*
X1255512Y2109181D01*
X1255658Y2109118D01*
X1255762Y2109056D01*
X1255845Y2109014D01*
X1255886Y2108994D01*
X1255907D01*
X1256219Y2108890D01*
X1256573Y2108786D01*
X1256947Y2108723D01*
X1257342Y2108640D01*
X1258154Y2108536D01*
X1258965Y2108474D01*
X1259339Y2108432D01*
X1259672D01*
X1260005Y2108411D01*
X1260275Y2108390D01*
X1260504D01*
X1260670D01*
X1260774D01*
X1260816D01*
X1275605D01*
Y2105000D01*
X1260795D01*
X1260046Y2105021D01*
X1259360Y2105042D01*
X1258694Y2105083D01*
X1258091Y2105146D01*
X1257509Y2105229D01*
X1256989Y2105312D01*
X1256510Y2105395D01*
X1256074Y2105478D01*
X1255678Y2105562D01*
X1255346Y2105645D01*
X1255054Y2105728D01*
X1254826Y2105811D01*
X1254638Y2105874D01*
X1254493Y2105915D01*
X1254410Y2105957D01*
X1254389D01*
X1253952Y2106165D01*
X1253557Y2106373D01*
X1253182Y2106622D01*
X1252829Y2106872D01*
X1252517Y2107142D01*
X1252226Y2107413D01*
X1251955Y2107683D01*
X1251706Y2107954D01*
X1251498Y2108203D01*
X1251310Y2108453D01*
X1251144Y2108661D01*
X1251019Y2108848D01*
X1250915Y2109014D01*
X1250853Y2109118D01*
X1250811Y2109202D01*
X1250790Y2109222D01*
X1250582Y2109659D01*
X1250395Y2110138D01*
X1250229Y2110616D01*
X1250083Y2111115D01*
X1249958Y2111594D01*
X1249854Y2112093D01*
X1249792Y2112571D01*
X1249709Y2113029D01*
X1249667Y2113445D01*
X1249626Y2113840D01*
X1249605Y2114214D01*
X1249584Y2114506D01*
X1249563Y2114755D01*
Y2115109D01*
X1249584Y2115795D01*
X1249626Y2116419D01*
X1249688Y2117043D01*
X1249792Y2117605D01*
X1249896Y2118125D01*
X1250021Y2118624D01*
X1250146Y2119082D01*
X1250270Y2119477D01*
X1250395Y2119851D01*
X1250541Y2120163D01*
X1250645Y2120434D01*
X1250749Y2120662D01*
X1250853Y2120850D01*
X1250915Y2120974D01*
X1250957Y2121058D01*
X1250978Y2121078D01*
X1251248Y2121494D01*
X1251539Y2121869D01*
X1251851Y2122222D01*
X1252142Y2122534D01*
X1252454Y2122826D01*
X1252766Y2123075D01*
X1253058Y2123325D01*
X1253349Y2123512D01*
X1253619Y2123699D01*
X1253869Y2123845D01*
X1254098Y2123970D01*
X1254285Y2124074D01*
X1254451Y2124136D01*
X1254555Y2124198D01*
X1254638Y2124240D01*
X1254659D01*
X1255096Y2124386D01*
X1255574Y2124531D01*
X1256594Y2124739D01*
X1257613Y2124906D01*
X1258112Y2124968D01*
X1258590Y2125010D01*
X1259048Y2125051D01*
X1259464Y2125072D01*
X1259838Y2125093D01*
X1260150D01*
X1260421Y2125114D01*
X1260629D01*
X1260754D01*
X1260774D01*
X1260795D01*
X1275605D01*
Y2121723D01*
D02*
G37*
%LPC*%
G36*
X1445430Y2620571D02*
Y2609027D01*
X1453459D01*
X1445430Y2620571D01*
D02*
G37*
%LPD*%
%TF.MD5,0ab8d85055c58b2da9804c25347ab862*%
M02*
