%TF.GenerationSoftware,Altium Limited,Altium Designer,20.0.9 (164)*%
G04 Layer_Color=8388736*
%FSLAX26Y26*%
%MOIN*%
%TF.FileFunction,Soldermask,Top*%
%TF.Part,Single*%
G01*
G75*
%TA.AperFunction,SMDPad,CuDef*%
%ADD73R,0.045402X0.049339*%
%TA.AperFunction,ComponentPad*%
%ADD85R,0.063118X0.063118*%
%ADD86C,0.063118*%
%ADD87C,0.069024*%
%ADD88R,0.069024X0.069024*%
%ADD89C,0.067055*%
%ADD90R,0.067055X0.067055*%
%TA.AperFunction,ViaPad*%
%ADD91C,0.028000*%
%ADD92C,0.048000*%
%ADD93C,0.058000*%
%ADD94C,0.148000*%
%TA.AperFunction,SMDPad,CuDef*%
%ADD97R,0.063118X0.067055*%
%ADD98R,0.041465X0.043433*%
%ADD99R,0.033984X0.032409*%
%TA.AperFunction,ConnectorPad*%
%ADD100R,0.051307X0.035559*%
%ADD101R,0.118236X0.041858*%
%ADD102R,0.137921X0.035559*%
%ADD103R,0.080047X0.052882*%
%ADD104R,0.038709X0.049339*%
%ADD105R,0.044614X0.043433*%
%TA.AperFunction,SMDPad,CuDef*%
%ADD106R,0.070992X0.043433*%
G36*
X1632202Y3039655D02*
X1632607D01*
X1633106Y3039593D01*
X1633668Y3039530D01*
X1634292Y3039437D01*
X1635010Y3039312D01*
X1635758Y3039156D01*
X1636538Y3038969D01*
X1637318Y3038719D01*
X1638130Y3038439D01*
X1638972Y3038126D01*
X1639783Y3037721D01*
X1640563Y3037284D01*
X1641312Y3036754D01*
X1641343Y3036722D01*
X1641499Y3036629D01*
X1641686Y3036442D01*
X1641967Y3036223D01*
X1642279Y3035911D01*
X1642654Y3035537D01*
X1643028Y3035100D01*
X1643465Y3034632D01*
X1643933Y3034070D01*
X1644370Y3033447D01*
X1644838Y3032760D01*
X1645274Y3032043D01*
X1645711Y3031231D01*
X1646117Y3030389D01*
X1646491Y3029453D01*
X1646803Y3028486D01*
X1641811Y3027331D01*
Y3027394D01*
X1641749Y3027519D01*
X1641686Y3027737D01*
X1641562Y3028018D01*
X1641437Y3028361D01*
X1641250Y3028767D01*
X1641062Y3029203D01*
X1640813Y3029671D01*
X1640282Y3030670D01*
X1639596Y3031668D01*
X1639222Y3032136D01*
X1638816Y3032604D01*
X1638379Y3033041D01*
X1637911Y3033415D01*
X1637880Y3033447D01*
X1637786Y3033509D01*
X1637662Y3033602D01*
X1637443Y3033727D01*
X1637194Y3033852D01*
X1636913Y3034039D01*
X1636570Y3034195D01*
X1636164Y3034383D01*
X1635727Y3034570D01*
X1635259Y3034726D01*
X1634729Y3034913D01*
X1634167Y3035038D01*
X1633574Y3035162D01*
X1632919Y3035256D01*
X1632264Y3035318D01*
X1631546Y3035350D01*
X1631110D01*
X1630798Y3035318D01*
X1630423Y3035287D01*
X1629986Y3035225D01*
X1629487Y3035162D01*
X1628957Y3035100D01*
X1628395Y3034975D01*
X1627802Y3034819D01*
X1627178Y3034663D01*
X1626554Y3034445D01*
X1625930Y3034227D01*
X1625306Y3033914D01*
X1624714Y3033602D01*
X1624152Y3033228D01*
X1624121Y3033197D01*
X1624027Y3033135D01*
X1623871Y3033010D01*
X1623684Y3032854D01*
X1623434Y3032635D01*
X1623154Y3032354D01*
X1622842Y3032074D01*
X1622530Y3031731D01*
X1622186Y3031325D01*
X1621843Y3030888D01*
X1621469Y3030420D01*
X1621126Y3029921D01*
X1620814Y3029390D01*
X1620502Y3028798D01*
X1620221Y3028174D01*
X1619971Y3027519D01*
Y3027487D01*
X1619909Y3027363D01*
X1619878Y3027175D01*
X1619784Y3026894D01*
X1619690Y3026582D01*
X1619597Y3026177D01*
X1619503Y3025740D01*
X1619378Y3025241D01*
X1619254Y3024711D01*
X1619160Y3024149D01*
X1619066Y3023525D01*
X1618973Y3022901D01*
X1618848Y3021559D01*
X1618786Y3020155D01*
Y3020093D01*
Y3019937D01*
Y3019687D01*
X1618817Y3019344D01*
Y3018907D01*
X1618848Y3018408D01*
X1618910Y3017847D01*
X1618973Y3017254D01*
X1619035Y3016599D01*
X1619129Y3015912D01*
X1619378Y3014477D01*
X1619722Y3013010D01*
X1619940Y3012293D01*
X1620190Y3011575D01*
X1620221Y3011544D01*
X1620252Y3011419D01*
X1620346Y3011232D01*
X1620470Y3010983D01*
X1620626Y3010671D01*
X1620814Y3010327D01*
X1621032Y3009953D01*
X1621282Y3009516D01*
X1621562Y3009079D01*
X1621906Y3008642D01*
X1622280Y3008175D01*
X1622654Y3007738D01*
X1623091Y3007301D01*
X1623559Y3006864D01*
X1624090Y3006490D01*
X1624620Y3006115D01*
X1624651Y3006084D01*
X1624745Y3006053D01*
X1624932Y3005959D01*
X1625150Y3005834D01*
X1625431Y3005710D01*
X1625774Y3005554D01*
X1626149Y3005398D01*
X1626586Y3005242D01*
X1627054Y3005055D01*
X1627553Y3004898D01*
X1628083Y3004742D01*
X1628645Y3004618D01*
X1629238Y3004493D01*
X1629862Y3004399D01*
X1630486Y3004368D01*
X1631141Y3004337D01*
X1631328D01*
X1631546Y3004368D01*
X1631858D01*
X1632233Y3004399D01*
X1632638Y3004462D01*
X1633138Y3004555D01*
X1633637Y3004649D01*
X1634198Y3004774D01*
X1634791Y3004930D01*
X1635384Y3005117D01*
X1635977Y3005367D01*
X1636601Y3005647D01*
X1637194Y3005959D01*
X1637786Y3006334D01*
X1638348Y3006771D01*
X1638379Y3006802D01*
X1638473Y3006895D01*
X1638629Y3007020D01*
X1638816Y3007238D01*
X1639066Y3007488D01*
X1639346Y3007800D01*
X1639658Y3008175D01*
X1639970Y3008611D01*
X1640282Y3009110D01*
X1640626Y3009641D01*
X1640969Y3010234D01*
X1641312Y3010920D01*
X1641624Y3011606D01*
X1641905Y3012387D01*
X1642154Y3013229D01*
X1642373Y3014102D01*
X1647458Y3012823D01*
Y3012792D01*
X1647427Y3012761D01*
Y3012667D01*
X1647396Y3012543D01*
X1647271Y3012231D01*
X1647146Y3011794D01*
X1646959Y3011263D01*
X1646741Y3010671D01*
X1646460Y3009984D01*
X1646117Y3009267D01*
X1645774Y3008518D01*
X1645337Y3007738D01*
X1644869Y3006958D01*
X1644338Y3006146D01*
X1643746Y3005367D01*
X1643122Y3004618D01*
X1642435Y3003931D01*
X1641686Y3003276D01*
X1641624Y3003245D01*
X1641499Y3003151D01*
X1641250Y3002964D01*
X1640938Y3002777D01*
X1640532Y3002527D01*
X1640064Y3002247D01*
X1639502Y3001934D01*
X1638878Y3001654D01*
X1638161Y3001342D01*
X1637381Y3001030D01*
X1636538Y3000749D01*
X1635665Y3000499D01*
X1634698Y3000312D01*
X1633699Y3000156D01*
X1632638Y3000031D01*
X1631546Y3000000D01*
X1631266D01*
X1630954Y3000031D01*
X1630517D01*
X1629986Y3000062D01*
X1629394Y3000125D01*
X1628707Y3000218D01*
X1627958Y3000312D01*
X1627178Y3000437D01*
X1626367Y3000624D01*
X1625525Y3000811D01*
X1624682Y3001061D01*
X1623840Y3001342D01*
X1623029Y3001685D01*
X1622218Y3002059D01*
X1621469Y3002496D01*
X1621438Y3002527D01*
X1621313Y3002621D01*
X1621094Y3002777D01*
X1620845Y3002964D01*
X1620502Y3003245D01*
X1620127Y3003557D01*
X1619722Y3003931D01*
X1619285Y3004368D01*
X1618817Y3004836D01*
X1618318Y3005398D01*
X1617850Y3005990D01*
X1617350Y3006646D01*
X1616882Y3007363D01*
X1616414Y3008143D01*
X1615978Y3008954D01*
X1615572Y3009828D01*
X1615541Y3009890D01*
X1615478Y3010046D01*
X1615385Y3010296D01*
X1615260Y3010671D01*
X1615104Y3011107D01*
X1614917Y3011638D01*
X1614761Y3012231D01*
X1614574Y3012917D01*
X1614355Y3013666D01*
X1614199Y3014446D01*
X1614012Y3015319D01*
X1613856Y3016193D01*
X1613731Y3017129D01*
X1613638Y3018096D01*
X1613575Y3019095D01*
X1613544Y3020124D01*
Y3020155D01*
Y3020186D01*
Y3020280D01*
Y3020405D01*
X1613575Y3020717D01*
Y3021122D01*
X1613606Y3021653D01*
X1613669Y3022246D01*
X1613731Y3022932D01*
X1613825Y3023681D01*
X1613950Y3024461D01*
X1614106Y3025303D01*
X1614293Y3026177D01*
X1614511Y3027050D01*
X1614761Y3027955D01*
X1615073Y3028860D01*
X1615416Y3029734D01*
X1615822Y3030576D01*
X1615853Y3030639D01*
X1615915Y3030763D01*
X1616071Y3031013D01*
X1616258Y3031325D01*
X1616477Y3031668D01*
X1616758Y3032105D01*
X1617101Y3032573D01*
X1617475Y3033103D01*
X1617912Y3033634D01*
X1618411Y3034195D01*
X1618942Y3034757D01*
X1619534Y3035318D01*
X1620158Y3035880D01*
X1620814Y3036379D01*
X1621531Y3036878D01*
X1622311Y3037347D01*
X1622374Y3037378D01*
X1622498Y3037440D01*
X1622748Y3037565D01*
X1623060Y3037721D01*
X1623466Y3037877D01*
X1623934Y3038095D01*
X1624464Y3038314D01*
X1625057Y3038532D01*
X1625743Y3038751D01*
X1626461Y3038938D01*
X1627210Y3039156D01*
X1628052Y3039312D01*
X1628894Y3039468D01*
X1629768Y3039593D01*
X1630704Y3039655D01*
X1631640Y3039686D01*
X1631890D01*
X1632202Y3039655D01*
D02*
G37*
G36*
X1462349Y3039655D02*
X1462754D01*
X1463254Y3039593D01*
X1463815Y3039530D01*
X1464439Y3039437D01*
X1465157Y3039312D01*
X1465906Y3039156D01*
X1466686Y3038969D01*
X1467466Y3038719D01*
X1468277Y3038438D01*
X1469119Y3038126D01*
X1469930Y3037721D01*
X1470710Y3037284D01*
X1471459Y3036754D01*
X1471490Y3036722D01*
X1471646Y3036629D01*
X1471834Y3036442D01*
X1472114Y3036223D01*
X1472426Y3035911D01*
X1472801Y3035537D01*
X1473175Y3035100D01*
X1473612Y3034632D01*
X1474080Y3034070D01*
X1474517Y3033446D01*
X1474985Y3032760D01*
X1475422Y3032042D01*
X1475858Y3031231D01*
X1476264Y3030389D01*
X1476638Y3029453D01*
X1476950Y3028486D01*
X1471958Y3027331D01*
Y3027394D01*
X1471896Y3027518D01*
X1471834Y3027737D01*
X1471709Y3028018D01*
X1471584Y3028361D01*
X1471397Y3028766D01*
X1471210Y3029203D01*
X1470960Y3029671D01*
X1470430Y3030670D01*
X1469743Y3031668D01*
X1469369Y3032136D01*
X1468963Y3032604D01*
X1468526Y3033041D01*
X1468058Y3033415D01*
X1468027Y3033446D01*
X1467934Y3033509D01*
X1467809Y3033602D01*
X1467590Y3033727D01*
X1467341Y3033852D01*
X1467060Y3034039D01*
X1466717Y3034195D01*
X1466311Y3034382D01*
X1465874Y3034570D01*
X1465406Y3034726D01*
X1464876Y3034913D01*
X1464314Y3035038D01*
X1463722Y3035162D01*
X1463066Y3035256D01*
X1462411Y3035318D01*
X1461694Y3035350D01*
X1461257D01*
X1460945Y3035318D01*
X1460570Y3035287D01*
X1460134Y3035225D01*
X1459634Y3035162D01*
X1459104Y3035100D01*
X1458542Y3034975D01*
X1457950Y3034819D01*
X1457326Y3034663D01*
X1456702Y3034445D01*
X1456078Y3034226D01*
X1455454Y3033914D01*
X1454861Y3033602D01*
X1454299Y3033228D01*
X1454268Y3033197D01*
X1454174Y3033134D01*
X1454018Y3033010D01*
X1453831Y3032854D01*
X1453582Y3032635D01*
X1453301Y3032354D01*
X1452989Y3032074D01*
X1452677Y3031730D01*
X1452334Y3031325D01*
X1451990Y3030888D01*
X1451616Y3030420D01*
X1451273Y3029921D01*
X1450961Y3029390D01*
X1450649Y3028798D01*
X1450368Y3028174D01*
X1450118Y3027518D01*
Y3027487D01*
X1450056Y3027362D01*
X1450025Y3027175D01*
X1449931Y3026894D01*
X1449838Y3026582D01*
X1449744Y3026177D01*
X1449650Y3025740D01*
X1449526Y3025241D01*
X1449401Y3024710D01*
X1449307Y3024149D01*
X1449214Y3023525D01*
X1449120Y3022901D01*
X1448995Y3021559D01*
X1448933Y3020155D01*
Y3020093D01*
Y3019937D01*
Y3019687D01*
X1448964Y3019344D01*
Y3018907D01*
X1448995Y3018408D01*
X1449058Y3017846D01*
X1449120Y3017254D01*
X1449182Y3016598D01*
X1449276Y3015912D01*
X1449526Y3014477D01*
X1449869Y3013010D01*
X1450087Y3012293D01*
X1450337Y3011575D01*
X1450368Y3011544D01*
X1450399Y3011419D01*
X1450493Y3011232D01*
X1450618Y3010982D01*
X1450774Y3010670D01*
X1450961Y3010327D01*
X1451179Y3009953D01*
X1451429Y3009516D01*
X1451710Y3009079D01*
X1452053Y3008642D01*
X1452427Y3008174D01*
X1452802Y3007738D01*
X1453238Y3007301D01*
X1453706Y3006864D01*
X1454237Y3006490D01*
X1454767Y3006115D01*
X1454798Y3006084D01*
X1454892Y3006053D01*
X1455079Y3005959D01*
X1455298Y3005834D01*
X1455578Y3005710D01*
X1455922Y3005554D01*
X1456296Y3005398D01*
X1456733Y3005242D01*
X1457201Y3005054D01*
X1457700Y3004898D01*
X1458230Y3004742D01*
X1458792Y3004618D01*
X1459385Y3004493D01*
X1460009Y3004399D01*
X1460633Y3004368D01*
X1461288Y3004337D01*
X1461475D01*
X1461694Y3004368D01*
X1462006D01*
X1462380Y3004399D01*
X1462786Y3004462D01*
X1463285Y3004555D01*
X1463784Y3004649D01*
X1464346Y3004774D01*
X1464938Y3004930D01*
X1465531Y3005117D01*
X1466124Y3005366D01*
X1466748Y3005647D01*
X1467341Y3005959D01*
X1467934Y3006334D01*
X1468495Y3006770D01*
X1468526Y3006802D01*
X1468620Y3006895D01*
X1468776Y3007020D01*
X1468963Y3007238D01*
X1469213Y3007488D01*
X1469494Y3007800D01*
X1469806Y3008174D01*
X1470118Y3008611D01*
X1470430Y3009110D01*
X1470773Y3009641D01*
X1471116Y3010234D01*
X1471459Y3010920D01*
X1471771Y3011606D01*
X1472052Y3012386D01*
X1472302Y3013229D01*
X1472520Y3014102D01*
X1477606Y3012823D01*
Y3012792D01*
X1477574Y3012761D01*
Y3012667D01*
X1477543Y3012542D01*
X1477418Y3012230D01*
X1477294Y3011794D01*
X1477106Y3011263D01*
X1476888Y3010670D01*
X1476607Y3009984D01*
X1476264Y3009266D01*
X1475921Y3008518D01*
X1475484Y3007738D01*
X1475016Y3006958D01*
X1474486Y3006146D01*
X1473893Y3005366D01*
X1473269Y3004618D01*
X1472582Y3003931D01*
X1471834Y3003276D01*
X1471771Y3003245D01*
X1471646Y3003151D01*
X1471397Y3002964D01*
X1471085Y3002777D01*
X1470679Y3002527D01*
X1470211Y3002246D01*
X1469650Y3001934D01*
X1469026Y3001654D01*
X1468308Y3001342D01*
X1467528Y3001030D01*
X1466686Y3000749D01*
X1465812Y3000499D01*
X1464845Y3000312D01*
X1463846Y3000156D01*
X1462786Y3000031D01*
X1461694Y3000000D01*
X1461413D01*
X1461101Y3000031D01*
X1460664D01*
X1460134Y3000062D01*
X1459541Y3000125D01*
X1458854Y3000218D01*
X1458106Y3000312D01*
X1457326Y3000437D01*
X1456514Y3000624D01*
X1455672Y3000811D01*
X1454830Y3001061D01*
X1453987Y3001342D01*
X1453176Y3001685D01*
X1452365Y3002059D01*
X1451616Y3002496D01*
X1451585Y3002527D01*
X1451460Y3002621D01*
X1451242Y3002777D01*
X1450992Y3002964D01*
X1450649Y3003245D01*
X1450274Y3003557D01*
X1449869Y3003931D01*
X1449432Y3004368D01*
X1448964Y3004836D01*
X1448465Y3005398D01*
X1447997Y3005990D01*
X1447498Y3006646D01*
X1447030Y3007363D01*
X1446562Y3008143D01*
X1446125Y3008954D01*
X1445719Y3009828D01*
X1445688Y3009890D01*
X1445626Y3010046D01*
X1445532Y3010296D01*
X1445407Y3010670D01*
X1445251Y3011107D01*
X1445064Y3011638D01*
X1444908Y3012230D01*
X1444721Y3012917D01*
X1444502Y3013666D01*
X1444346Y3014446D01*
X1444159Y3015319D01*
X1444003Y3016193D01*
X1443878Y3017129D01*
X1443785Y3018096D01*
X1443722Y3019094D01*
X1443691Y3020124D01*
Y3020155D01*
Y3020186D01*
Y3020280D01*
Y3020405D01*
X1443722Y3020717D01*
Y3021122D01*
X1443754Y3021653D01*
X1443816Y3022246D01*
X1443878Y3022932D01*
X1443972Y3023681D01*
X1444097Y3024461D01*
X1444253Y3025303D01*
X1444440Y3026177D01*
X1444658Y3027050D01*
X1444908Y3027955D01*
X1445220Y3028860D01*
X1445563Y3029734D01*
X1445969Y3030576D01*
X1446000Y3030638D01*
X1446062Y3030763D01*
X1446218Y3031013D01*
X1446406Y3031325D01*
X1446624Y3031668D01*
X1446905Y3032105D01*
X1447248Y3032573D01*
X1447622Y3033103D01*
X1448059Y3033634D01*
X1448558Y3034195D01*
X1449089Y3034757D01*
X1449682Y3035318D01*
X1450306Y3035880D01*
X1450961Y3036379D01*
X1451678Y3036878D01*
X1452458Y3037346D01*
X1452521Y3037378D01*
X1452646Y3037440D01*
X1452895Y3037565D01*
X1453207Y3037721D01*
X1453613Y3037877D01*
X1454081Y3038095D01*
X1454611Y3038314D01*
X1455204Y3038532D01*
X1455890Y3038750D01*
X1456608Y3038938D01*
X1457357Y3039156D01*
X1458199Y3039312D01*
X1459042Y3039468D01*
X1459915Y3039593D01*
X1460851Y3039655D01*
X1461787Y3039686D01*
X1462037D01*
X1462349Y3039655D01*
D02*
G37*
G36*
X1725989Y3039655D02*
X1726332D01*
X1726769Y3039624D01*
X1727268Y3039562D01*
X1727798Y3039530D01*
X1728360Y3039437D01*
X1728953Y3039343D01*
X1730232Y3039094D01*
X1731542Y3038782D01*
X1732198Y3038563D01*
X1732822Y3038314D01*
X1732853D01*
X1732978Y3038251D01*
X1733134Y3038189D01*
X1733383Y3038064D01*
X1733664Y3037939D01*
X1733976Y3037752D01*
X1734350Y3037565D01*
X1734756Y3037347D01*
X1735598Y3036816D01*
X1736472Y3036161D01*
X1737314Y3035412D01*
X1737720Y3035006D01*
X1738094Y3034570D01*
X1738126Y3034539D01*
X1738188Y3034445D01*
X1738282Y3034320D01*
X1738406Y3034133D01*
X1738562Y3033883D01*
X1738750Y3033602D01*
X1738968Y3033259D01*
X1739186Y3032885D01*
X1739405Y3032448D01*
X1739654Y3031980D01*
X1739873Y3031450D01*
X1740122Y3030888D01*
X1740372Y3030295D01*
X1740590Y3029671D01*
X1740809Y3028985D01*
X1740996Y3028267D01*
X1736441Y3027019D01*
Y3027050D01*
X1736410Y3027144D01*
X1736347Y3027300D01*
X1736285Y3027519D01*
X1736191Y3027737D01*
X1736098Y3028049D01*
X1735973Y3028361D01*
X1735848Y3028704D01*
X1735536Y3029422D01*
X1735162Y3030202D01*
X1734756Y3030950D01*
X1734288Y3031637D01*
Y3031668D01*
X1734226Y3031699D01*
X1734163Y3031793D01*
X1734038Y3031918D01*
X1733758Y3032230D01*
X1733352Y3032604D01*
X1732822Y3033041D01*
X1732198Y3033478D01*
X1731449Y3033914D01*
X1730606Y3034320D01*
X1730575D01*
X1730513Y3034351D01*
X1730357Y3034414D01*
X1730201Y3034476D01*
X1729982Y3034570D01*
X1729702Y3034632D01*
X1729390Y3034726D01*
X1729046Y3034851D01*
X1728672Y3034944D01*
X1728266Y3035038D01*
X1727362Y3035194D01*
X1726363Y3035318D01*
X1725302Y3035350D01*
X1724710D01*
X1724429Y3035318D01*
X1724054Y3035287D01*
X1723680Y3035256D01*
X1723243Y3035225D01*
X1722276Y3035100D01*
X1721278Y3034913D01*
X1720248Y3034632D01*
X1719250Y3034289D01*
X1719218D01*
X1719125Y3034227D01*
X1719000Y3034195D01*
X1718844Y3034102D01*
X1718626Y3033977D01*
X1718376Y3033852D01*
X1717783Y3033540D01*
X1717128Y3033135D01*
X1716473Y3032666D01*
X1715786Y3032105D01*
X1715162Y3031481D01*
X1715131Y3031450D01*
X1715100Y3031419D01*
X1715006Y3031325D01*
X1714913Y3031169D01*
X1714788Y3031013D01*
X1714632Y3030826D01*
X1714289Y3030358D01*
X1713883Y3029796D01*
X1713478Y3029141D01*
X1713103Y3028454D01*
X1712760Y3027675D01*
Y3027643D01*
X1712698Y3027519D01*
X1712635Y3027331D01*
X1712542Y3027050D01*
X1712417Y3026738D01*
X1712292Y3026333D01*
X1712167Y3025896D01*
X1712042Y3025366D01*
X1711886Y3024835D01*
X1711762Y3024242D01*
X1711637Y3023587D01*
X1711512Y3022932D01*
X1711418Y3022215D01*
X1711356Y3021497D01*
X1711325Y3020748D01*
X1711294Y3019968D01*
Y3019906D01*
Y3019750D01*
Y3019469D01*
X1711325Y3019126D01*
X1711356Y3018658D01*
X1711387Y3018159D01*
X1711450Y3017597D01*
X1711512Y3016973D01*
X1711606Y3016287D01*
X1711730Y3015600D01*
X1712042Y3014165D01*
X1712230Y3013447D01*
X1712479Y3012730D01*
X1712729Y3012012D01*
X1713041Y3011357D01*
X1713072Y3011326D01*
X1713134Y3011201D01*
X1713228Y3011045D01*
X1713384Y3010795D01*
X1713571Y3010515D01*
X1713790Y3010171D01*
X1714039Y3009828D01*
X1714351Y3009423D01*
X1714694Y3009017D01*
X1715069Y3008611D01*
X1715506Y3008175D01*
X1715974Y3007738D01*
X1716473Y3007332D01*
X1717003Y3006958D01*
X1717565Y3006583D01*
X1718189Y3006240D01*
X1718220Y3006209D01*
X1718345Y3006178D01*
X1718532Y3006084D01*
X1718782Y3005990D01*
X1719094Y3005866D01*
X1719468Y3005710D01*
X1719905Y3005554D01*
X1720373Y3005429D01*
X1720872Y3005273D01*
X1721434Y3005117D01*
X1722026Y3004961D01*
X1722650Y3004836D01*
X1723992Y3004649D01*
X1724678Y3004618D01*
X1725396Y3004586D01*
X1725708D01*
X1725958Y3004618D01*
X1726270D01*
X1726613Y3004649D01*
X1727018Y3004680D01*
X1727455Y3004742D01*
X1727923Y3004805D01*
X1728422Y3004898D01*
X1729514Y3005117D01*
X1730638Y3005429D01*
X1731823Y3005834D01*
X1731854Y3005866D01*
X1731948Y3005897D01*
X1732135Y3005959D01*
X1732354Y3006053D01*
X1732603Y3006178D01*
X1732915Y3006302D01*
X1733258Y3006490D01*
X1733602Y3006646D01*
X1734382Y3007051D01*
X1735193Y3007519D01*
X1735942Y3008019D01*
X1736316Y3008268D01*
X1736628Y3008549D01*
Y3015694D01*
X1725302D01*
Y3020218D01*
X1741589D01*
Y3005959D01*
X1741558Y3005928D01*
X1741433Y3005834D01*
X1741214Y3005678D01*
X1740934Y3005460D01*
X1740590Y3005242D01*
X1740185Y3004930D01*
X1739717Y3004618D01*
X1739218Y3004306D01*
X1738625Y3003931D01*
X1738032Y3003557D01*
X1737408Y3003182D01*
X1736722Y3002839D01*
X1735286Y3002122D01*
X1734569Y3001810D01*
X1733820Y3001498D01*
X1733789Y3001466D01*
X1733633Y3001435D01*
X1733414Y3001373D01*
X1733134Y3001279D01*
X1732759Y3001155D01*
X1732354Y3001030D01*
X1731854Y3000905D01*
X1731324Y3000749D01*
X1730731Y3000624D01*
X1730107Y3000468D01*
X1729421Y3000343D01*
X1728703Y3000250D01*
X1727237Y3000062D01*
X1726457Y3000031D01*
X1725677Y3000000D01*
X1725427D01*
X1725115Y3000031D01*
X1724710D01*
X1724210Y3000062D01*
X1723649Y3000125D01*
X1722994Y3000187D01*
X1722276Y3000312D01*
X1721496Y3000437D01*
X1720654Y3000593D01*
X1719811Y3000780D01*
X1718938Y3001030D01*
X1718033Y3001279D01*
X1717159Y3001622D01*
X1716254Y3001966D01*
X1715381Y3002403D01*
X1715318Y3002434D01*
X1715194Y3002527D01*
X1714944Y3002652D01*
X1714632Y3002870D01*
X1714226Y3003120D01*
X1713790Y3003401D01*
X1713290Y3003775D01*
X1712791Y3004181D01*
X1712230Y3004649D01*
X1711637Y3005179D01*
X1711075Y3005741D01*
X1710482Y3006365D01*
X1709921Y3007051D01*
X1709359Y3007769D01*
X1708860Y3008549D01*
X1708392Y3009391D01*
X1708361Y3009454D01*
X1708298Y3009610D01*
X1708174Y3009859D01*
X1708018Y3010202D01*
X1707862Y3010639D01*
X1707643Y3011139D01*
X1707456Y3011731D01*
X1707238Y3012387D01*
X1707019Y3013135D01*
X1706801Y3013915D01*
X1706582Y3014758D01*
X1706426Y3015662D01*
X1706270Y3016599D01*
X1706146Y3017597D01*
X1706083Y3018595D01*
X1706052Y3019656D01*
Y3019687D01*
Y3019718D01*
Y3019906D01*
X1706083Y3020218D01*
Y3020592D01*
X1706114Y3021091D01*
X1706177Y3021684D01*
X1706239Y3022339D01*
X1706333Y3023057D01*
X1706458Y3023837D01*
X1706614Y3024648D01*
X1706801Y3025522D01*
X1707050Y3026395D01*
X1707300Y3027331D01*
X1707612Y3028236D01*
X1707986Y3029172D01*
X1708392Y3030077D01*
X1708423Y3030139D01*
X1708517Y3030295D01*
X1708642Y3030545D01*
X1708829Y3030888D01*
X1709078Y3031294D01*
X1709359Y3031731D01*
X1709702Y3032261D01*
X1710108Y3032823D01*
X1710576Y3033384D01*
X1711075Y3033977D01*
X1711606Y3034601D01*
X1712230Y3035194D01*
X1712885Y3035755D01*
X1713571Y3036317D01*
X1714320Y3036847D01*
X1715131Y3037315D01*
X1715194Y3037347D01*
X1715318Y3037409D01*
X1715568Y3037534D01*
X1715911Y3037690D01*
X1716317Y3037877D01*
X1716816Y3038064D01*
X1717409Y3038282D01*
X1718064Y3038501D01*
X1718750Y3038719D01*
X1719530Y3038938D01*
X1720373Y3039125D01*
X1721278Y3039312D01*
X1722214Y3039468D01*
X1723181Y3039593D01*
X1724210Y3039655D01*
X1725271Y3039686D01*
X1725677D01*
X1725989Y3039655D01*
D02*
G37*
G36*
X1698814Y3000655D02*
X1693603D01*
X1673448Y3030794D01*
Y3000655D01*
X1668581D01*
Y3039062D01*
X1673760D01*
X1693946Y3008892D01*
Y3039062D01*
X1698814D01*
Y3000655D01*
D02*
G37*
G36*
X1436609Y3000655D02*
X1431398D01*
X1411243Y3030794D01*
Y3000655D01*
X1406376D01*
Y3039062D01*
X1411555D01*
X1431742Y3008892D01*
Y3039062D01*
X1436609D01*
Y3000655D01*
D02*
G37*
G36*
X1659658Y3000655D02*
X1654572D01*
Y3039062D01*
X1659658D01*
Y3000655D01*
D02*
G37*
G36*
X1610892D02*
X1605120D01*
X1600658Y3012293D01*
X1584590D01*
X1580378Y3000655D01*
X1575012Y3000655D01*
X1589707Y3039062D01*
X1595230D01*
X1610892Y3000655D01*
D02*
G37*
G36*
X1558850Y3039031D02*
X1559318Y3039000D01*
X1559880Y3038969D01*
X1560473Y3038938D01*
X1561721Y3038813D01*
X1563000Y3038626D01*
X1563624Y3038501D01*
X1564248Y3038345D01*
X1564810Y3038189D01*
X1565340Y3038002D01*
X1565371D01*
X1565465Y3037939D01*
X1565590Y3037877D01*
X1565777Y3037814D01*
X1566026Y3037690D01*
X1566276Y3037534D01*
X1566869Y3037159D01*
X1567212Y3036941D01*
X1567555Y3036660D01*
X1567930Y3036348D01*
X1568273Y3036036D01*
X1568616Y3035662D01*
X1568990Y3035256D01*
X1569302Y3034819D01*
X1569614Y3034351D01*
X1569646Y3034320D01*
X1569677Y3034226D01*
X1569770Y3034102D01*
X1569864Y3033883D01*
X1569989Y3033634D01*
X1570114Y3033353D01*
X1570270Y3033010D01*
X1570426Y3032635D01*
X1570582Y3032230D01*
X1570738Y3031793D01*
X1570987Y3030826D01*
X1571174Y3029734D01*
X1571206Y3029172D01*
X1571237Y3028579D01*
Y3028548D01*
Y3028392D01*
X1571206Y3028174D01*
Y3027893D01*
X1571143Y3027550D01*
X1571112Y3027144D01*
X1571018Y3026676D01*
X1570894Y3026177D01*
X1570769Y3025646D01*
X1570582Y3025116D01*
X1570363Y3024523D01*
X1570114Y3023962D01*
X1569802Y3023369D01*
X1569458Y3022776D01*
X1569053Y3022214D01*
X1568585Y3021684D01*
X1568554Y3021653D01*
X1568460Y3021559D01*
X1568304Y3021434D01*
X1568086Y3021247D01*
X1567805Y3020998D01*
X1567462Y3020748D01*
X1567056Y3020467D01*
X1566557Y3020186D01*
X1566026Y3019874D01*
X1565434Y3019594D01*
X1564747Y3019282D01*
X1564030Y3019001D01*
X1563218Y3018720D01*
X1562345Y3018502D01*
X1561409Y3018283D01*
X1560410Y3018127D01*
X1560442D01*
X1560504Y3018096D01*
X1560598Y3018034D01*
X1560754Y3017971D01*
X1561097Y3017753D01*
X1561565Y3017503D01*
X1562064Y3017222D01*
X1562563Y3016879D01*
X1563031Y3016536D01*
X1563468Y3016193D01*
X1563499Y3016162D01*
X1563562Y3016099D01*
X1563686Y3015974D01*
X1563842Y3015818D01*
X1564061Y3015631D01*
X1564279Y3015382D01*
X1564560Y3015101D01*
X1564841Y3014789D01*
X1565153Y3014446D01*
X1565496Y3014071D01*
X1565839Y3013634D01*
X1566182Y3013198D01*
X1566931Y3012199D01*
X1567680Y3011107D01*
X1574326Y3000655D01*
X1567992D01*
X1562906Y3008642D01*
X1562875Y3008674D01*
X1562813Y3008798D01*
X1562688Y3008986D01*
X1562532Y3009204D01*
X1562345Y3009485D01*
X1562126Y3009828D01*
X1561877Y3010202D01*
X1561627Y3010577D01*
X1561034Y3011450D01*
X1560410Y3012324D01*
X1559818Y3013166D01*
X1559506Y3013541D01*
X1559225Y3013915D01*
Y3013946D01*
X1559162Y3014009D01*
X1559100Y3014102D01*
X1558975Y3014227D01*
X1558726Y3014539D01*
X1558351Y3014914D01*
X1557977Y3015350D01*
X1557540Y3015787D01*
X1557072Y3016162D01*
X1556635Y3016474D01*
X1556573Y3016505D01*
X1556448Y3016598D01*
X1556230Y3016723D01*
X1555918Y3016879D01*
X1555574Y3017066D01*
X1555200Y3017254D01*
X1554794Y3017410D01*
X1554358Y3017534D01*
X1554326D01*
X1554202Y3017566D01*
X1553983Y3017597D01*
X1553671Y3017628D01*
X1553297Y3017659D01*
X1552798Y3017690D01*
X1552205Y3017722D01*
X1545653D01*
Y3000655D01*
X1540567D01*
Y3039062D01*
X1558414D01*
X1558850Y3039031D01*
D02*
G37*
G36*
X1344350D02*
X1344818Y3039000D01*
X1345380Y3038969D01*
X1345973Y3038938D01*
X1347221Y3038813D01*
X1348500Y3038626D01*
X1349124Y3038501D01*
X1349748Y3038345D01*
X1350310Y3038189D01*
X1350840Y3038002D01*
X1350871D01*
X1350965Y3037939D01*
X1351090Y3037877D01*
X1351277Y3037814D01*
X1351526Y3037690D01*
X1351776Y3037534D01*
X1352369Y3037159D01*
X1352712Y3036941D01*
X1353055Y3036660D01*
X1353430Y3036348D01*
X1353773Y3036036D01*
X1354116Y3035662D01*
X1354490Y3035256D01*
X1354802Y3034819D01*
X1355114Y3034351D01*
X1355146Y3034320D01*
X1355177Y3034226D01*
X1355270Y3034102D01*
X1355364Y3033883D01*
X1355489Y3033634D01*
X1355614Y3033353D01*
X1355770Y3033010D01*
X1355926Y3032635D01*
X1356082Y3032230D01*
X1356238Y3031793D01*
X1356487Y3030826D01*
X1356674Y3029734D01*
X1356706Y3029172D01*
X1356737Y3028579D01*
Y3028548D01*
Y3028392D01*
X1356706Y3028174D01*
Y3027893D01*
X1356643Y3027550D01*
X1356612Y3027144D01*
X1356518Y3026676D01*
X1356394Y3026177D01*
X1356269Y3025646D01*
X1356082Y3025116D01*
X1355863Y3024523D01*
X1355614Y3023962D01*
X1355302Y3023369D01*
X1354958Y3022776D01*
X1354553Y3022214D01*
X1354085Y3021684D01*
X1354054Y3021653D01*
X1353960Y3021559D01*
X1353804Y3021434D01*
X1353586Y3021247D01*
X1353305Y3020998D01*
X1352962Y3020748D01*
X1352556Y3020467D01*
X1352057Y3020186D01*
X1351526Y3019874D01*
X1350934Y3019594D01*
X1350247Y3019282D01*
X1349530Y3019001D01*
X1348718Y3018720D01*
X1347845Y3018502D01*
X1346909Y3018283D01*
X1345910Y3018127D01*
X1345942D01*
X1346004Y3018096D01*
X1346098Y3018034D01*
X1346254Y3017971D01*
X1346597Y3017753D01*
X1347065Y3017503D01*
X1347564Y3017222D01*
X1348063Y3016879D01*
X1348531Y3016536D01*
X1348968Y3016193D01*
X1348999Y3016162D01*
X1349062Y3016099D01*
X1349186Y3015974D01*
X1349342Y3015818D01*
X1349561Y3015631D01*
X1349779Y3015382D01*
X1350060Y3015101D01*
X1350341Y3014789D01*
X1350653Y3014446D01*
X1350996Y3014071D01*
X1351339Y3013634D01*
X1351682Y3013198D01*
X1352431Y3012199D01*
X1353180Y3011107D01*
X1359826Y3000655D01*
X1353492D01*
X1348406Y3008642D01*
X1348375Y3008674D01*
X1348313Y3008798D01*
X1348188Y3008986D01*
X1348032Y3009204D01*
X1347845Y3009485D01*
X1347626Y3009828D01*
X1347377Y3010202D01*
X1347127Y3010577D01*
X1346534Y3011450D01*
X1345910Y3012324D01*
X1345318Y3013166D01*
X1345006Y3013541D01*
X1344725Y3013915D01*
Y3013946D01*
X1344662Y3014009D01*
X1344600Y3014102D01*
X1344475Y3014227D01*
X1344226Y3014539D01*
X1343851Y3014914D01*
X1343477Y3015350D01*
X1343040Y3015787D01*
X1342572Y3016162D01*
X1342135Y3016474D01*
X1342073Y3016505D01*
X1341948Y3016598D01*
X1341730Y3016723D01*
X1341418Y3016879D01*
X1341074Y3017066D01*
X1340700Y3017254D01*
X1340294Y3017410D01*
X1339858Y3017534D01*
X1339826D01*
X1339702Y3017566D01*
X1339483Y3017597D01*
X1339171Y3017628D01*
X1338797Y3017659D01*
X1338298Y3017690D01*
X1337705Y3017722D01*
X1331153D01*
Y3000655D01*
X1326067D01*
Y3039062D01*
X1343914D01*
X1344350Y3039031D01*
D02*
G37*
G36*
X1305101D02*
X1305475D01*
X1305912Y3039000D01*
X1306380Y3038969D01*
X1306910Y3038906D01*
X1308034Y3038782D01*
X1309219Y3038563D01*
X1310374Y3038282D01*
X1310904Y3038095D01*
X1311434Y3037877D01*
X1311466D01*
X1311559Y3037814D01*
X1311684Y3037752D01*
X1311871Y3037658D01*
X1312090Y3037534D01*
X1312339Y3037378D01*
X1312963Y3037003D01*
X1313618Y3036504D01*
X1314305Y3035880D01*
X1314991Y3035131D01*
X1315584Y3034289D01*
X1315615Y3034258D01*
X1315646Y3034195D01*
X1315740Y3034039D01*
X1315834Y3033883D01*
X1315927Y3033634D01*
X1316083Y3033384D01*
X1316208Y3033072D01*
X1316364Y3032729D01*
X1316645Y3031980D01*
X1316863Y3031106D01*
X1317050Y3030170D01*
X1317082Y3029702D01*
X1317113Y3029203D01*
Y3029172D01*
Y3029110D01*
Y3028954D01*
X1317082Y3028798D01*
Y3028579D01*
X1317050Y3028298D01*
X1316988Y3028018D01*
X1316957Y3027706D01*
X1316801Y3026988D01*
X1316551Y3026208D01*
X1316208Y3025397D01*
X1316021Y3024960D01*
X1315771Y3024554D01*
Y3024523D01*
X1315709Y3024461D01*
X1315615Y3024336D01*
X1315522Y3024180D01*
X1315366Y3024024D01*
X1315210Y3023806D01*
X1314991Y3023556D01*
X1314773Y3023306D01*
X1314492Y3023026D01*
X1314211Y3022745D01*
X1313868Y3022464D01*
X1313494Y3022152D01*
X1313119Y3021871D01*
X1312682Y3021590D01*
X1312246Y3021310D01*
X1311746Y3021060D01*
X1311778D01*
X1311902Y3020998D01*
X1312090Y3020935D01*
X1312308Y3020873D01*
X1312620Y3020748D01*
X1312932Y3020592D01*
X1313306Y3020436D01*
X1313712Y3020249D01*
X1314586Y3019750D01*
X1315022Y3019469D01*
X1315459Y3019157D01*
X1315896Y3018814D01*
X1316302Y3018439D01*
X1316707Y3018002D01*
X1317082Y3017566D01*
X1317113Y3017534D01*
X1317175Y3017441D01*
X1317269Y3017316D01*
X1317394Y3017129D01*
X1317518Y3016879D01*
X1317674Y3016598D01*
X1317862Y3016286D01*
X1318049Y3015912D01*
X1318205Y3015506D01*
X1318392Y3015070D01*
X1318548Y3014602D01*
X1318704Y3014071D01*
X1318798Y3013541D01*
X1318891Y3012979D01*
X1318954Y3012386D01*
X1318985Y3011762D01*
Y3011731D01*
Y3011638D01*
Y3011513D01*
X1318954Y3011294D01*
Y3011076D01*
X1318922Y3010795D01*
X1318891Y3010452D01*
X1318829Y3010109D01*
X1318704Y3009329D01*
X1318486Y3008486D01*
X1318205Y3007613D01*
X1317830Y3006739D01*
Y3006708D01*
X1317768Y3006646D01*
X1317706Y3006521D01*
X1317612Y3006365D01*
X1317518Y3006178D01*
X1317362Y3005959D01*
X1317050Y3005429D01*
X1316645Y3004867D01*
X1316146Y3004274D01*
X1315584Y3003682D01*
X1314991Y3003182D01*
X1314960D01*
X1314929Y3003120D01*
X1314835Y3003058D01*
X1314679Y3002964D01*
X1314523Y3002870D01*
X1314336Y3002746D01*
X1314118Y3002621D01*
X1313837Y3002465D01*
X1313244Y3002184D01*
X1312526Y3001841D01*
X1311715Y3001560D01*
X1310810Y3001279D01*
X1310779D01*
X1310686Y3001248D01*
X1310561Y3001217D01*
X1310374Y3001186D01*
X1310124Y3001123D01*
X1309812Y3001092D01*
X1309469Y3001030D01*
X1309094Y3000967D01*
X1308658Y3000905D01*
X1308190Y3000842D01*
X1307690Y3000811D01*
X1307129Y3000749D01*
X1306567Y3000718D01*
X1305943Y3000686D01*
X1304633Y3000655D01*
X1290000D01*
Y3039062D01*
X1304820D01*
X1305101Y3039031D01*
D02*
G37*
G36*
X1501224Y3039718D02*
X1501598D01*
X1502066Y3039686D01*
X1502597Y3039624D01*
X1503221Y3039530D01*
X1503876Y3039437D01*
X1504594Y3039281D01*
X1505374Y3039125D01*
X1506154Y3038906D01*
X1506965Y3038657D01*
X1507807Y3038376D01*
X1508650Y3038033D01*
X1509461Y3037627D01*
X1510272Y3037190D01*
X1510334Y3037159D01*
X1510459Y3037066D01*
X1510678Y3036941D01*
X1510990Y3036722D01*
X1511333Y3036473D01*
X1511738Y3036161D01*
X1512206Y3035786D01*
X1512706Y3035350D01*
X1513205Y3034882D01*
X1513735Y3034351D01*
X1514297Y3033758D01*
X1514827Y3033134D01*
X1515358Y3032448D01*
X1515857Y3031730D01*
X1516356Y3030950D01*
X1516793Y3030108D01*
X1516824Y3030046D01*
X1516886Y3029890D01*
X1517011Y3029640D01*
X1517136Y3029297D01*
X1517323Y3028891D01*
X1517510Y3028361D01*
X1517698Y3027768D01*
X1517916Y3027113D01*
X1518134Y3026364D01*
X1518322Y3025584D01*
X1518509Y3024742D01*
X1518696Y3023837D01*
X1518821Y3022870D01*
X1518946Y3021871D01*
X1519008Y3020842D01*
X1519039Y3019781D01*
Y3019750D01*
Y3019718D01*
Y3019625D01*
Y3019531D01*
Y3019219D01*
X1519008Y3018814D01*
X1518977Y3018283D01*
X1518914Y3017690D01*
X1518852Y3017035D01*
X1518758Y3016286D01*
X1518634Y3015506D01*
X1518446Y3014664D01*
X1518259Y3013790D01*
X1518041Y3012917D01*
X1517760Y3012012D01*
X1517448Y3011107D01*
X1517074Y3010202D01*
X1516668Y3009329D01*
X1516637Y3009266D01*
X1516543Y3009142D01*
X1516418Y3008892D01*
X1516231Y3008580D01*
X1515982Y3008206D01*
X1515701Y3007769D01*
X1515326Y3007270D01*
X1514952Y3006739D01*
X1514484Y3006178D01*
X1513985Y3005616D01*
X1513423Y3005023D01*
X1512830Y3004462D01*
X1512175Y3003900D01*
X1511489Y3003338D01*
X1510740Y3002839D01*
X1509960Y3002371D01*
X1509898Y3002340D01*
X1509773Y3002278D01*
X1509523Y3002153D01*
X1509211Y3001997D01*
X1508806Y3001810D01*
X1508338Y3001622D01*
X1507807Y3001404D01*
X1507183Y3001186D01*
X1506528Y3000967D01*
X1505810Y3000749D01*
X1505030Y3000562D01*
X1504219Y3000374D01*
X1503377Y3000218D01*
X1502503Y3000094D01*
X1501598Y3000031D01*
X1500662Y3000000D01*
X1500413D01*
X1500132Y3000031D01*
X1499758D01*
X1499258Y3000094D01*
X1498728Y3000125D01*
X1498104Y3000218D01*
X1497418Y3000312D01*
X1496669Y3000468D01*
X1495920Y3000624D01*
X1495109Y3000842D01*
X1494266Y3001092D01*
X1493455Y3001404D01*
X1492613Y3001747D01*
X1491770Y3002122D01*
X1490959Y3002590D01*
X1490897Y3002621D01*
X1490772Y3002714D01*
X1490554Y3002870D01*
X1490273Y3003058D01*
X1489898Y3003338D01*
X1489493Y3003650D01*
X1489056Y3004025D01*
X1488557Y3004462D01*
X1488058Y3004961D01*
X1487527Y3005491D01*
X1486997Y3006084D01*
X1486435Y3006708D01*
X1485905Y3007394D01*
X1485406Y3008143D01*
X1484938Y3008923D01*
X1484501Y3009734D01*
X1484470Y3009797D01*
X1484407Y3009953D01*
X1484314Y3010202D01*
X1484158Y3010514D01*
X1484002Y3010951D01*
X1483814Y3011450D01*
X1483627Y3012012D01*
X1483409Y3012636D01*
X1483222Y3013322D01*
X1483003Y3014071D01*
X1482816Y3014882D01*
X1482660Y3015725D01*
X1482504Y3016567D01*
X1482410Y3017472D01*
X1482348Y3018408D01*
X1482317Y3019344D01*
Y3019375D01*
Y3019469D01*
Y3019594D01*
Y3019781D01*
X1482348Y3019999D01*
Y3020280D01*
X1482379Y3020561D01*
X1482410Y3020935D01*
X1482442Y3021310D01*
X1482473Y3021746D01*
X1482598Y3022651D01*
X1482754Y3023681D01*
X1482972Y3024804D01*
X1483222Y3025990D01*
X1483565Y3027206D01*
X1483970Y3028454D01*
X1484470Y3029702D01*
X1485062Y3030919D01*
X1485749Y3032136D01*
X1486529Y3033259D01*
X1487434Y3034320D01*
X1487465Y3034351D01*
X1487496Y3034382D01*
X1487683Y3034570D01*
X1487964Y3034819D01*
X1488370Y3035162D01*
X1488869Y3035568D01*
X1489493Y3036036D01*
X1490210Y3036535D01*
X1491022Y3037034D01*
X1491926Y3037534D01*
X1492925Y3038033D01*
X1494017Y3038501D01*
X1495202Y3038906D01*
X1496450Y3039250D01*
X1497792Y3039530D01*
X1499196Y3039686D01*
X1499945Y3039749D01*
X1500943D01*
X1501224Y3039718D01*
D02*
G37*
G36*
X1382071D02*
X1382446D01*
X1382914Y3039686D01*
X1383444Y3039624D01*
X1384068Y3039530D01*
X1384723Y3039437D01*
X1385441Y3039281D01*
X1386221Y3039125D01*
X1387001Y3038906D01*
X1387812Y3038657D01*
X1388654Y3038376D01*
X1389497Y3038033D01*
X1390308Y3037627D01*
X1391119Y3037190D01*
X1391182Y3037159D01*
X1391306Y3037066D01*
X1391525Y3036941D01*
X1391837Y3036722D01*
X1392180Y3036473D01*
X1392586Y3036161D01*
X1393054Y3035786D01*
X1393553Y3035350D01*
X1394052Y3034882D01*
X1394582Y3034351D01*
X1395144Y3033758D01*
X1395674Y3033134D01*
X1396205Y3032448D01*
X1396704Y3031730D01*
X1397203Y3030950D01*
X1397640Y3030108D01*
X1397671Y3030046D01*
X1397734Y3029890D01*
X1397858Y3029640D01*
X1397983Y3029297D01*
X1398170Y3028891D01*
X1398358Y3028361D01*
X1398545Y3027768D01*
X1398763Y3027113D01*
X1398982Y3026364D01*
X1399169Y3025584D01*
X1399356Y3024742D01*
X1399543Y3023837D01*
X1399668Y3022870D01*
X1399793Y3021871D01*
X1399855Y3020842D01*
X1399886Y3019781D01*
Y3019750D01*
Y3019718D01*
Y3019625D01*
Y3019531D01*
Y3019219D01*
X1399855Y3018814D01*
X1399824Y3018283D01*
X1399762Y3017690D01*
X1399699Y3017035D01*
X1399606Y3016286D01*
X1399481Y3015506D01*
X1399294Y3014664D01*
X1399106Y3013790D01*
X1398888Y3012917D01*
X1398607Y3012012D01*
X1398295Y3011107D01*
X1397921Y3010202D01*
X1397515Y3009329D01*
X1397484Y3009266D01*
X1397390Y3009142D01*
X1397266Y3008892D01*
X1397078Y3008580D01*
X1396829Y3008206D01*
X1396548Y3007769D01*
X1396174Y3007270D01*
X1395799Y3006739D01*
X1395331Y3006178D01*
X1394832Y3005616D01*
X1394270Y3005023D01*
X1393678Y3004462D01*
X1393022Y3003900D01*
X1392336Y3003338D01*
X1391587Y3002839D01*
X1390807Y3002371D01*
X1390745Y3002340D01*
X1390620Y3002278D01*
X1390370Y3002153D01*
X1390058Y3001997D01*
X1389653Y3001810D01*
X1389185Y3001622D01*
X1388654Y3001404D01*
X1388030Y3001186D01*
X1387375Y3000967D01*
X1386658Y3000749D01*
X1385878Y3000562D01*
X1385066Y3000374D01*
X1384224Y3000218D01*
X1383350Y3000094D01*
X1382446Y3000031D01*
X1381510Y3000000D01*
X1381260D01*
X1380979Y3000031D01*
X1380605D01*
X1380106Y3000094D01*
X1379575Y3000125D01*
X1378951Y3000218D01*
X1378265Y3000312D01*
X1377516Y3000468D01*
X1376767Y3000624D01*
X1375956Y3000842D01*
X1375114Y3001092D01*
X1374302Y3001404D01*
X1373460Y3001747D01*
X1372618Y3002122D01*
X1371806Y3002590D01*
X1371744Y3002621D01*
X1371619Y3002714D01*
X1371401Y3002870D01*
X1371120Y3003058D01*
X1370746Y3003338D01*
X1370340Y3003650D01*
X1369903Y3004025D01*
X1369404Y3004462D01*
X1368905Y3004961D01*
X1368374Y3005491D01*
X1367844Y3006084D01*
X1367282Y3006708D01*
X1366752Y3007394D01*
X1366253Y3008143D01*
X1365785Y3008923D01*
X1365348Y3009734D01*
X1365317Y3009797D01*
X1365254Y3009953D01*
X1365161Y3010202D01*
X1365005Y3010514D01*
X1364849Y3010951D01*
X1364662Y3011450D01*
X1364474Y3012012D01*
X1364256Y3012636D01*
X1364069Y3013322D01*
X1363850Y3014071D01*
X1363663Y3014882D01*
X1363507Y3015725D01*
X1363351Y3016567D01*
X1363258Y3017472D01*
X1363195Y3018408D01*
X1363164Y3019344D01*
Y3019375D01*
Y3019469D01*
Y3019594D01*
Y3019781D01*
X1363195Y3019999D01*
Y3020280D01*
X1363226Y3020561D01*
X1363258Y3020935D01*
X1363289Y3021310D01*
X1363320Y3021746D01*
X1363445Y3022651D01*
X1363601Y3023681D01*
X1363819Y3024804D01*
X1364069Y3025990D01*
X1364412Y3027206D01*
X1364818Y3028454D01*
X1365317Y3029702D01*
X1365910Y3030919D01*
X1366596Y3032136D01*
X1367376Y3033259D01*
X1368281Y3034320D01*
X1368312Y3034351D01*
X1368343Y3034382D01*
X1368530Y3034570D01*
X1368811Y3034819D01*
X1369217Y3035162D01*
X1369716Y3035568D01*
X1370340Y3036036D01*
X1371058Y3036535D01*
X1371869Y3037034D01*
X1372774Y3037534D01*
X1373772Y3038033D01*
X1374864Y3038501D01*
X1376050Y3038906D01*
X1377298Y3039250D01*
X1378639Y3039530D01*
X1380043Y3039686D01*
X1380792Y3039749D01*
X1381790D01*
X1382071Y3039718D01*
D02*
G37*
%LPC*%
G36*
X1592328Y3035038D02*
Y3035006D01*
X1592297Y3034882D01*
X1592266Y3034663D01*
X1592203Y3034414D01*
X1592110Y3034070D01*
X1592016Y3033665D01*
X1591922Y3033228D01*
X1591798Y3032729D01*
X1591642Y3032198D01*
X1591486Y3031606D01*
X1591330Y3031013D01*
X1591142Y3030358D01*
X1590737Y3029047D01*
X1590269Y3027675D01*
X1586026Y3016443D01*
X1599067D01*
X1595074Y3027050D01*
X1595042Y3027113D01*
X1594980Y3027269D01*
X1594886Y3027519D01*
X1594762Y3027862D01*
X1594606Y3028267D01*
X1594450Y3028735D01*
X1594262Y3029297D01*
X1594044Y3029858D01*
X1593826Y3030483D01*
X1593607Y3031138D01*
X1593139Y3032448D01*
X1592702Y3033790D01*
X1592515Y3034445D01*
X1592328Y3035038D01*
D02*
G37*
G36*
X1557790Y3034819D02*
X1545653D01*
Y3022121D01*
X1557134D01*
X1557415Y3022152D01*
X1557758D01*
X1558133Y3022183D01*
X1558538Y3022214D01*
X1559412Y3022308D01*
X1560317Y3022433D01*
X1561190Y3022589D01*
X1561596Y3022714D01*
X1561970Y3022838D01*
X1562002D01*
X1562064Y3022870D01*
X1562158Y3022901D01*
X1562282Y3022963D01*
X1562657Y3023150D01*
X1563094Y3023400D01*
X1563562Y3023712D01*
X1564061Y3024118D01*
X1564529Y3024586D01*
X1564966Y3025116D01*
Y3025147D01*
X1564997Y3025178D01*
X1565059Y3025272D01*
X1565122Y3025397D01*
X1565278Y3025709D01*
X1565496Y3026146D01*
X1565683Y3026676D01*
X1565839Y3027238D01*
X1565964Y3027893D01*
X1565995Y3028579D01*
Y3028610D01*
Y3028704D01*
Y3028829D01*
X1565964Y3029047D01*
X1565933Y3029266D01*
X1565902Y3029546D01*
X1565839Y3029827D01*
X1565746Y3030170D01*
X1565496Y3030857D01*
X1565340Y3031231D01*
X1565153Y3031606D01*
X1564934Y3031980D01*
X1564654Y3032354D01*
X1564342Y3032698D01*
X1563998Y3033041D01*
X1563967Y3033072D01*
X1563905Y3033103D01*
X1563780Y3033197D01*
X1563624Y3033322D01*
X1563406Y3033446D01*
X1563156Y3033602D01*
X1562844Y3033758D01*
X1562501Y3033946D01*
X1562064Y3034102D01*
X1561627Y3034258D01*
X1561097Y3034414D01*
X1560566Y3034538D01*
X1559942Y3034663D01*
X1559287Y3034757D01*
X1558570Y3034788D01*
X1557790Y3034819D01*
D02*
G37*
G36*
X1343290D02*
X1331153D01*
Y3022121D01*
X1342634D01*
X1342915Y3022152D01*
X1343258D01*
X1343633Y3022183D01*
X1344038Y3022214D01*
X1344912Y3022308D01*
X1345817Y3022433D01*
X1346690Y3022589D01*
X1347096Y3022714D01*
X1347470Y3022838D01*
X1347502D01*
X1347564Y3022870D01*
X1347658Y3022901D01*
X1347782Y3022963D01*
X1348157Y3023150D01*
X1348594Y3023400D01*
X1349062Y3023712D01*
X1349561Y3024118D01*
X1350029Y3024586D01*
X1350466Y3025116D01*
Y3025147D01*
X1350497Y3025178D01*
X1350559Y3025272D01*
X1350622Y3025397D01*
X1350778Y3025709D01*
X1350996Y3026146D01*
X1351183Y3026676D01*
X1351339Y3027238D01*
X1351464Y3027893D01*
X1351495Y3028579D01*
Y3028610D01*
Y3028704D01*
Y3028829D01*
X1351464Y3029047D01*
X1351433Y3029266D01*
X1351402Y3029546D01*
X1351339Y3029827D01*
X1351246Y3030170D01*
X1350996Y3030857D01*
X1350840Y3031231D01*
X1350653Y3031606D01*
X1350434Y3031980D01*
X1350154Y3032354D01*
X1349842Y3032698D01*
X1349498Y3033041D01*
X1349467Y3033072D01*
X1349405Y3033103D01*
X1349280Y3033197D01*
X1349124Y3033322D01*
X1348906Y3033446D01*
X1348656Y3033602D01*
X1348344Y3033758D01*
X1348001Y3033946D01*
X1347564Y3034102D01*
X1347127Y3034258D01*
X1346597Y3034414D01*
X1346066Y3034538D01*
X1345442Y3034663D01*
X1344787Y3034757D01*
X1344070Y3034788D01*
X1343290Y3034819D01*
D02*
G37*
G36*
X1303478Y3034538D02*
X1295086D01*
Y3022901D01*
X1304196D01*
X1304508Y3022932D01*
X1304851D01*
X1305226Y3022963D01*
X1306037Y3022994D01*
X1306848Y3023088D01*
X1307597Y3023182D01*
X1307940Y3023275D01*
X1308221Y3023338D01*
X1308252D01*
X1308314Y3023369D01*
X1308408Y3023400D01*
X1308533Y3023462D01*
X1308876Y3023587D01*
X1309313Y3023774D01*
X1309781Y3024055D01*
X1310249Y3024367D01*
X1310717Y3024773D01*
X1311122Y3025241D01*
Y3025272D01*
X1311154Y3025303D01*
X1311278Y3025490D01*
X1311434Y3025771D01*
X1311622Y3026177D01*
X1311809Y3026645D01*
X1311965Y3027238D01*
X1312090Y3027893D01*
X1312121Y3028610D01*
Y3028642D01*
Y3028704D01*
Y3028798D01*
Y3028922D01*
X1312058Y3029297D01*
X1311996Y3029765D01*
X1311902Y3030295D01*
X1311715Y3030857D01*
X1311497Y3031418D01*
X1311185Y3031980D01*
Y3032011D01*
X1311154Y3032042D01*
X1311029Y3032230D01*
X1310810Y3032479D01*
X1310530Y3032791D01*
X1310155Y3033103D01*
X1309687Y3033446D01*
X1309157Y3033727D01*
X1308564Y3033977D01*
X1308533D01*
X1308470Y3034008D01*
X1308377Y3034039D01*
X1308252Y3034070D01*
X1308034Y3034102D01*
X1307815Y3034164D01*
X1307534Y3034195D01*
X1307191Y3034258D01*
X1306817Y3034320D01*
X1306411Y3034351D01*
X1305912Y3034414D01*
X1305382Y3034445D01*
X1304820Y3034476D01*
X1304165Y3034507D01*
X1303478Y3034538D01*
D02*
G37*
G36*
X1304602Y3018377D02*
X1295086D01*
Y3005179D01*
X1305475D01*
X1306006Y3005210D01*
X1306567D01*
X1307129Y3005242D01*
X1307659Y3005273D01*
X1307909Y3005304D01*
X1308096Y3005335D01*
X1308127D01*
X1308190Y3005366D01*
X1308252D01*
X1308377Y3005398D01*
X1308720Y3005460D01*
X1309126Y3005585D01*
X1309594Y3005710D01*
X1310062Y3005897D01*
X1310561Y3006115D01*
X1311029Y3006365D01*
X1311091Y3006396D01*
X1311216Y3006490D01*
X1311434Y3006677D01*
X1311715Y3006926D01*
X1312027Y3007207D01*
X1312339Y3007582D01*
X1312651Y3008018D01*
X1312963Y3008518D01*
Y3008549D01*
X1312994Y3008580D01*
X1313088Y3008767D01*
X1313213Y3009048D01*
X1313369Y3009454D01*
X1313494Y3009922D01*
X1313618Y3010483D01*
X1313712Y3011107D01*
X1313743Y3011762D01*
Y3011794D01*
Y3011856D01*
Y3011981D01*
X1313712Y3012137D01*
Y3012324D01*
X1313681Y3012542D01*
X1313618Y3013042D01*
X1313462Y3013603D01*
X1313275Y3014227D01*
X1312994Y3014882D01*
X1312620Y3015475D01*
Y3015506D01*
X1312558Y3015538D01*
X1312402Y3015725D01*
X1312152Y3016006D01*
X1311809Y3016349D01*
X1311372Y3016723D01*
X1310842Y3017098D01*
X1310218Y3017441D01*
X1309531Y3017722D01*
X1309500D01*
X1309438Y3017753D01*
X1309344Y3017784D01*
X1309188Y3017815D01*
X1308970Y3017878D01*
X1308720Y3017940D01*
X1308439Y3018002D01*
X1308096Y3018065D01*
X1307722Y3018096D01*
X1307316Y3018158D01*
X1306848Y3018221D01*
X1306349Y3018283D01*
X1305818Y3018314D01*
X1305226Y3018346D01*
X1304602Y3018377D01*
D02*
G37*
G36*
X1500725Y3035381D02*
X1500475D01*
X1500194Y3035350D01*
X1499820Y3035318D01*
X1499352Y3035256D01*
X1498822Y3035194D01*
X1498198Y3035069D01*
X1497542Y3034913D01*
X1496825Y3034726D01*
X1496076Y3034476D01*
X1495327Y3034164D01*
X1494516Y3033821D01*
X1493736Y3033384D01*
X1492956Y3032885D01*
X1492176Y3032323D01*
X1491427Y3031668D01*
X1491396Y3031637D01*
X1491271Y3031481D01*
X1491084Y3031262D01*
X1490834Y3030950D01*
X1490522Y3030545D01*
X1490210Y3030046D01*
X1489867Y3029422D01*
X1489493Y3028735D01*
X1489118Y3027924D01*
X1488775Y3027019D01*
X1488463Y3025990D01*
X1488151Y3024866D01*
X1487902Y3023650D01*
X1487714Y3022308D01*
X1487590Y3020842D01*
X1487558Y3019282D01*
Y3019250D01*
Y3019188D01*
Y3019094D01*
Y3018970D01*
Y3018814D01*
X1487590Y3018626D01*
X1487621Y3018127D01*
X1487683Y3017534D01*
X1487746Y3016879D01*
X1487870Y3016130D01*
X1488026Y3015319D01*
X1488214Y3014446D01*
X1488463Y3013541D01*
X1488775Y3012636D01*
X1489118Y3011731D01*
X1489555Y3010826D01*
X1490054Y3009953D01*
X1490616Y3009110D01*
X1491271Y3008330D01*
X1491302Y3008299D01*
X1491458Y3008174D01*
X1491646Y3007956D01*
X1491958Y3007706D01*
X1492301Y3007394D01*
X1492738Y3007082D01*
X1493268Y3006708D01*
X1493861Y3006334D01*
X1494485Y3005959D01*
X1495202Y3005616D01*
X1495982Y3005273D01*
X1496794Y3004961D01*
X1497698Y3004711D01*
X1498603Y3004524D01*
X1499602Y3004368D01*
X1500631Y3004337D01*
X1500881D01*
X1501193Y3004368D01*
X1501598Y3004399D01*
X1502066Y3004462D01*
X1502659Y3004555D01*
X1503283Y3004680D01*
X1503970Y3004836D01*
X1504687Y3005054D01*
X1505467Y3005335D01*
X1506247Y3005647D01*
X1507027Y3006022D01*
X1507838Y3006490D01*
X1508618Y3007020D01*
X1509367Y3007644D01*
X1510085Y3008362D01*
X1510116Y3008424D01*
X1510241Y3008549D01*
X1510428Y3008798D01*
X1510678Y3009110D01*
X1510958Y3009516D01*
X1511270Y3010015D01*
X1511582Y3010608D01*
X1511957Y3011294D01*
X1512300Y3012074D01*
X1512612Y3012917D01*
X1512924Y3013853D01*
X1513205Y3014882D01*
X1513454Y3016006D01*
X1513642Y3017191D01*
X1513766Y3018470D01*
X1513798Y3019812D01*
Y3019874D01*
Y3020030D01*
Y3020280D01*
X1513766Y3020592D01*
X1513735Y3020998D01*
X1513704Y3021497D01*
X1513673Y3022027D01*
X1513610Y3022620D01*
X1513517Y3023244D01*
X1513423Y3023899D01*
X1513142Y3025272D01*
X1512955Y3025958D01*
X1512737Y3026676D01*
X1512487Y3027362D01*
X1512206Y3028018D01*
X1512175Y3028049D01*
X1512144Y3028174D01*
X1512050Y3028361D01*
X1511926Y3028610D01*
X1511738Y3028891D01*
X1511551Y3029234D01*
X1511302Y3029609D01*
X1511021Y3030014D01*
X1510709Y3030451D01*
X1510366Y3030888D01*
X1509991Y3031325D01*
X1509586Y3031793D01*
X1509118Y3032230D01*
X1508650Y3032666D01*
X1508119Y3033072D01*
X1507558Y3033446D01*
X1507526Y3033478D01*
X1507433Y3033540D01*
X1507246Y3033634D01*
X1507027Y3033758D01*
X1506746Y3033883D01*
X1506403Y3034070D01*
X1505998Y3034226D01*
X1505561Y3034414D01*
X1505062Y3034601D01*
X1504531Y3034757D01*
X1503970Y3034944D01*
X1503377Y3035069D01*
X1502753Y3035194D01*
X1502098Y3035287D01*
X1501411Y3035350D01*
X1500725Y3035381D01*
D02*
G37*
G36*
X1381572D02*
X1381322D01*
X1381042Y3035350D01*
X1380667Y3035318D01*
X1380199Y3035256D01*
X1379669Y3035194D01*
X1379045Y3035069D01*
X1378390Y3034913D01*
X1377672Y3034726D01*
X1376923Y3034476D01*
X1376174Y3034164D01*
X1375363Y3033821D01*
X1374583Y3033384D01*
X1373803Y3032885D01*
X1373023Y3032323D01*
X1372274Y3031668D01*
X1372243Y3031637D01*
X1372118Y3031481D01*
X1371931Y3031262D01*
X1371682Y3030950D01*
X1371370Y3030545D01*
X1371058Y3030046D01*
X1370714Y3029422D01*
X1370340Y3028735D01*
X1369966Y3027924D01*
X1369622Y3027019D01*
X1369310Y3025990D01*
X1368998Y3024866D01*
X1368749Y3023650D01*
X1368562Y3022308D01*
X1368437Y3020842D01*
X1368406Y3019282D01*
Y3019250D01*
Y3019188D01*
Y3019094D01*
Y3018970D01*
Y3018814D01*
X1368437Y3018626D01*
X1368468Y3018127D01*
X1368530Y3017534D01*
X1368593Y3016879D01*
X1368718Y3016130D01*
X1368874Y3015319D01*
X1369061Y3014446D01*
X1369310Y3013541D01*
X1369622Y3012636D01*
X1369966Y3011731D01*
X1370402Y3010826D01*
X1370902Y3009953D01*
X1371463Y3009110D01*
X1372118Y3008330D01*
X1372150Y3008299D01*
X1372306Y3008174D01*
X1372493Y3007956D01*
X1372805Y3007706D01*
X1373148Y3007394D01*
X1373585Y3007082D01*
X1374115Y3006708D01*
X1374708Y3006334D01*
X1375332Y3005959D01*
X1376050Y3005616D01*
X1376830Y3005273D01*
X1377641Y3004961D01*
X1378546Y3004711D01*
X1379450Y3004524D01*
X1380449Y3004368D01*
X1381478Y3004337D01*
X1381728D01*
X1382040Y3004368D01*
X1382446Y3004399D01*
X1382914Y3004462D01*
X1383506Y3004555D01*
X1384130Y3004680D01*
X1384817Y3004836D01*
X1385534Y3005054D01*
X1386314Y3005335D01*
X1387094Y3005647D01*
X1387874Y3006022D01*
X1388686Y3006490D01*
X1389466Y3007020D01*
X1390214Y3007644D01*
X1390932Y3008362D01*
X1390963Y3008424D01*
X1391088Y3008549D01*
X1391275Y3008798D01*
X1391525Y3009110D01*
X1391806Y3009516D01*
X1392118Y3010015D01*
X1392430Y3010608D01*
X1392804Y3011294D01*
X1393147Y3012074D01*
X1393459Y3012917D01*
X1393771Y3013853D01*
X1394052Y3014882D01*
X1394302Y3016006D01*
X1394489Y3017191D01*
X1394614Y3018470D01*
X1394645Y3019812D01*
Y3019874D01*
Y3020030D01*
Y3020280D01*
X1394614Y3020592D01*
X1394582Y3020998D01*
X1394551Y3021497D01*
X1394520Y3022027D01*
X1394458Y3022620D01*
X1394364Y3023244D01*
X1394270Y3023899D01*
X1393990Y3025272D01*
X1393802Y3025958D01*
X1393584Y3026676D01*
X1393334Y3027362D01*
X1393054Y3028018D01*
X1393022Y3028049D01*
X1392991Y3028174D01*
X1392898Y3028361D01*
X1392773Y3028610D01*
X1392586Y3028891D01*
X1392398Y3029234D01*
X1392149Y3029609D01*
X1391868Y3030014D01*
X1391556Y3030451D01*
X1391213Y3030888D01*
X1390838Y3031325D01*
X1390433Y3031793D01*
X1389965Y3032230D01*
X1389497Y3032666D01*
X1388966Y3033072D01*
X1388405Y3033446D01*
X1388374Y3033478D01*
X1388280Y3033540D01*
X1388093Y3033634D01*
X1387874Y3033758D01*
X1387594Y3033883D01*
X1387250Y3034070D01*
X1386845Y3034226D01*
X1386408Y3034414D01*
X1385909Y3034601D01*
X1385378Y3034757D01*
X1384817Y3034944D01*
X1384224Y3035069D01*
X1383600Y3035194D01*
X1382945Y3035287D01*
X1382258Y3035350D01*
X1381572Y3035381D01*
D02*
G37*
%LPD*%
D73*
X1701457Y2755000D02*
D03*
X1758543D02*
D03*
D85*
X1930000Y2235000D02*
D03*
X1935000Y1126339D02*
D03*
D86*
X1830000Y2235000D02*
D03*
X1068858Y1126339D02*
D03*
Y1205079D02*
D03*
Y1283819D02*
D03*
Y1362559D02*
D03*
Y1441299D02*
D03*
Y1520039D02*
D03*
Y1598780D02*
D03*
Y1677520D02*
D03*
Y1756260D02*
D03*
Y1835000D02*
D03*
X1935000D02*
D03*
Y1756260D02*
D03*
Y1677520D02*
D03*
Y1598780D02*
D03*
Y1520039D02*
D03*
Y1441299D02*
D03*
Y1362559D02*
D03*
Y1283819D02*
D03*
Y1205079D02*
D03*
D87*
X1755000Y735000D02*
D03*
X1655000D02*
D03*
X1555000D02*
D03*
D88*
X1455000D02*
D03*
D89*
X1865000Y2679032D02*
D03*
Y2521551D02*
D03*
Y2600291D02*
D03*
D90*
Y2442811D02*
D03*
D91*
X1065000Y2760000D02*
D03*
Y2670000D02*
D03*
X1185000Y2950000D02*
D03*
X1520000Y990000D02*
D03*
X1205000Y845000D02*
D03*
X1820000Y1230000D02*
D03*
Y1275000D02*
D03*
X1155000Y1370000D02*
D03*
X1225000Y1345000D02*
D03*
X1220000Y1385000D02*
D03*
X1218910Y1436090D02*
D03*
X1490000Y1105000D02*
D03*
X1525000D02*
D03*
X1600000D02*
D03*
X1564552Y1105448D02*
D03*
X1680000Y2755000D02*
D03*
X1605000Y2245000D02*
D03*
X1475000Y2240000D02*
D03*
X1405000Y2130000D02*
D03*
X1072064Y2273000D02*
D03*
Y2221667D02*
D03*
Y2315000D02*
D03*
X1245000Y2550000D02*
D03*
X1380000D02*
D03*
X1375000Y2685000D02*
D03*
X1240000D02*
D03*
X1072064Y2175000D02*
D03*
X1695000Y2260000D02*
D03*
X1630000Y2530000D02*
D03*
D92*
X1300000Y1455000D02*
D03*
X1165000Y1230000D02*
D03*
X1640834Y1035834D02*
D03*
X1695000Y1480000D02*
D03*
X1420000Y1275000D02*
D03*
X1380000Y1925000D02*
D03*
X1730000D02*
D03*
X1360000Y1275000D02*
D03*
X1375000Y1070000D02*
D03*
X1340000Y1975000D02*
D03*
X1185000D02*
D03*
X1290000Y2165000D02*
D03*
X1235000Y2125000D02*
D03*
X1550591Y1925000D02*
D03*
X1075000Y875000D02*
D03*
X1805000Y1575000D02*
D03*
X1770000Y855000D02*
D03*
X1655000Y1280000D02*
D03*
X1590000Y1315000D02*
D03*
X1410000Y1015000D02*
D03*
X1405000Y840000D02*
D03*
X1470000Y1015000D02*
D03*
X1450000Y1710000D02*
D03*
D93*
X1685000Y1815000D02*
D03*
X1625000Y1795000D02*
D03*
D94*
X1910000Y3005000D02*
D03*
X1075000D02*
D03*
X1080000Y730000D02*
D03*
X1915000D02*
D03*
D97*
X1215945D02*
D03*
X1334055D02*
D03*
D98*
X1752638Y2690000D02*
D03*
X1707362D02*
D03*
D99*
X1747323Y2835000D02*
D03*
X1712677D02*
D03*
D100*
X1083150Y2844449D02*
D03*
Y2801142D02*
D03*
Y2757835D02*
D03*
Y2714528D02*
D03*
Y2671220D02*
D03*
Y2627914D02*
D03*
Y2584606D02*
D03*
Y2541299D02*
D03*
D101*
X1102835Y2886969D02*
D03*
D102*
X1527244Y2890118D02*
D03*
Y2379882D02*
D03*
D103*
X1083740Y2388543D02*
D03*
D104*
X1576850Y2638740D02*
D03*
D105*
X1573898Y2470827D02*
D03*
D106*
X1740000Y2506850D02*
D03*
Y2613150D02*
D03*
%TF.MD5,853ccc969ed9397dc6334ff4855057ed*%
M02*
