%TF.GenerationSoftware,Altium Limited,Altium Designer,20.0.9 (164)*%
G04 Layer_Color=8421504*
%FSLAX26Y26*%
%MOIN*%
%TF.FileFunction,Paste,Top*%
%TF.Part,Single*%
G01*
G75*
%TA.AperFunction,SMDPad,CuDef*%
%ADD10R,0.055118X0.059055*%
%ADD11R,0.033465X0.035433*%
%ADD12R,0.025984X0.024409*%
%ADD13R,0.037402X0.041339*%
%TA.AperFunction,ConnectorPad*%
%ADD14R,0.043307X0.027559*%
%ADD15R,0.110236X0.033858*%
%ADD16R,0.129921X0.027559*%
%ADD17R,0.072047X0.044882*%
%ADD18R,0.030709X0.041339*%
%ADD19R,0.036614X0.035433*%
%TA.AperFunction,SMDPad,CuDef*%
%ADD20R,0.062992X0.035433*%
D10*
X1215945Y730000D02*
D03*
X1334055D02*
D03*
D11*
X1752638Y2690000D02*
D03*
X1707362D02*
D03*
D12*
X1747323Y2835000D02*
D03*
X1712677D02*
D03*
D13*
X1701457Y2755000D02*
D03*
X1758543D02*
D03*
D14*
X1083150Y2844449D02*
D03*
Y2801142D02*
D03*
Y2757835D02*
D03*
Y2714528D02*
D03*
Y2671220D02*
D03*
Y2627914D02*
D03*
Y2584606D02*
D03*
Y2541299D02*
D03*
D15*
X1102835Y2886969D02*
D03*
D16*
X1527244Y2890118D02*
D03*
Y2379882D02*
D03*
D17*
X1083740Y2388543D02*
D03*
D18*
X1576850Y2638740D02*
D03*
D19*
X1573898Y2470827D02*
D03*
D20*
X1740000Y2506850D02*
D03*
Y2613150D02*
D03*
%TF.MD5,a4c7b3c5328c35d28a95f2cba9d44965*%
M02*
