%TF.GenerationSoftware,Altium Limited,Altium Designer,20.0.9 (164)*%
G04 Layer_Color=16711935*
%FSLAX26Y26*%
%MOIN*%
%TF.FileFunction,Soldermask,Bot*%
%TF.Part,Single*%
G01*
G75*
%TA.AperFunction,SMDPad,CuDef*%
%ADD67R,0.072961X0.051307*%
%TA.AperFunction,ConnectorPad*%
%ADD68R,0.074929X0.051307*%
%TA.AperFunction,SMDPad,CuDef*%
%ADD69R,0.051307X0.074929*%
%ADD70R,0.082803X0.067055*%
%ADD71O,0.019811X0.070992*%
%ADD72O,0.070992X0.019811*%
%ADD73R,0.045402X0.049339*%
%ADD74R,0.036346X0.036346*%
%ADD75R,0.069024X0.063118*%
%ADD76R,0.063118X0.069024*%
%ADD77R,0.036346X0.037921*%
%ADD78R,0.037921X0.036346*%
%ADD79O,0.053079X0.029654*%
%ADD80O,0.029654X0.053079*%
G04:AMPARAMS|DCode=81|XSize=49.339mil|YSize=130.047mil|CornerRadius=6.067mil|HoleSize=0mil|Usage=FLASHONLY|Rotation=90.000|XOffset=0mil|YOffset=0mil|HoleType=Round|Shape=RoundedRectangle|*
%AMROUNDEDRECTD81*
21,1,0.049339,0.117913,0,0,90.0*
21,1,0.037205,0.130047,0,0,90.0*
1,1,0.012134,0.058957,0.018602*
1,1,0.012134,0.058957,-0.018602*
1,1,0.012134,-0.058957,-0.018602*
1,1,0.012134,-0.058957,0.018602*
%
%ADD81ROUNDEDRECTD81*%
G04:AMPARAMS|DCode=82|XSize=228.472mil|YSize=267.842mil|CornerRadius=6.205mil|HoleSize=0mil|Usage=FLASHONLY|Rotation=90.000|XOffset=0mil|YOffset=0mil|HoleType=Round|Shape=RoundedRectangle|*
%AMROUNDEDRECTD82*
21,1,0.228472,0.255433,0,0,90.0*
21,1,0.216063,0.267842,0,0,90.0*
1,1,0.012409,0.127717,0.108031*
1,1,0.012409,0.127717,-0.108031*
1,1,0.012409,-0.127717,-0.108031*
1,1,0.012409,-0.127717,0.108031*
%
%ADD82ROUNDEDRECTD82*%
%ADD83R,0.082803X0.102488*%
G04:AMPARAMS|DCode=84|XSize=29.654mil|YSize=57.213mil|CornerRadius=5.949mil|HoleSize=0mil|Usage=FLASHONLY|Rotation=0.000|XOffset=0mil|YOffset=0mil|HoleType=Round|Shape=RoundedRectangle|*
%AMROUNDEDRECTD84*
21,1,0.029654,0.045315,0,0,0.0*
21,1,0.017756,0.057213,0,0,0.0*
1,1,0.011898,0.008878,-0.022657*
1,1,0.011898,-0.008878,-0.022657*
1,1,0.011898,-0.008878,0.022657*
1,1,0.011898,0.008878,0.022657*
%
%ADD84ROUNDEDRECTD84*%
%TA.AperFunction,ComponentPad*%
%ADD85R,0.063118X0.063118*%
%ADD86C,0.063118*%
%ADD87C,0.069024*%
%ADD88R,0.069024X0.069024*%
%ADD89C,0.067055*%
%ADD90R,0.067055X0.067055*%
%TA.AperFunction,ViaPad*%
%ADD91C,0.028000*%
%ADD92C,0.048000*%
%ADD93C,0.058000*%
%ADD94C,0.148000*%
D67*
X1165000Y848898D02*
D03*
Y961102D02*
D03*
D68*
X1075000Y956181D02*
D03*
Y853819D02*
D03*
D69*
X1648819Y1575000D02*
D03*
X1751181D02*
D03*
X1502362Y1925000D02*
D03*
X1400000D02*
D03*
X1598819D02*
D03*
X1701181D02*
D03*
D70*
X1405000Y2100945D02*
D03*
Y2219055D02*
D03*
D71*
X1362362Y1393347D02*
D03*
X1382047D02*
D03*
X1401732D02*
D03*
X1421417D02*
D03*
X1441102D02*
D03*
X1460787D02*
D03*
X1480472D02*
D03*
X1500157D02*
D03*
X1519842D02*
D03*
X1539527D02*
D03*
X1559213D02*
D03*
X1578898D02*
D03*
X1598583D02*
D03*
X1618268D02*
D03*
X1637953D02*
D03*
X1657638D02*
D03*
Y936654D02*
D03*
X1637953D02*
D03*
X1618268D02*
D03*
X1598583D02*
D03*
X1578898D02*
D03*
X1559213D02*
D03*
X1539527D02*
D03*
X1519842D02*
D03*
X1500157D02*
D03*
X1480472D02*
D03*
X1460787D02*
D03*
X1441102D02*
D03*
X1421417D02*
D03*
X1401732D02*
D03*
X1382047D02*
D03*
X1362362D02*
D03*
D72*
X1738346Y1312638D02*
D03*
Y1292953D02*
D03*
Y1273268D02*
D03*
Y1253583D02*
D03*
Y1233898D02*
D03*
Y1214213D02*
D03*
Y1194528D02*
D03*
Y1174843D02*
D03*
Y1155158D02*
D03*
Y1135473D02*
D03*
Y1115787D02*
D03*
Y1096102D02*
D03*
Y1076417D02*
D03*
Y1056732D02*
D03*
Y1037047D02*
D03*
Y1017362D02*
D03*
X1281653D02*
D03*
Y1037047D02*
D03*
Y1056732D02*
D03*
Y1076417D02*
D03*
Y1096102D02*
D03*
Y1115787D02*
D03*
Y1135473D02*
D03*
Y1155158D02*
D03*
Y1174843D02*
D03*
Y1194528D02*
D03*
Y1214213D02*
D03*
Y1233898D02*
D03*
Y1253583D02*
D03*
Y1273268D02*
D03*
Y1292953D02*
D03*
Y1312638D02*
D03*
D73*
X1526457Y2245000D02*
D03*
X1583543D02*
D03*
D74*
X1495315Y1665000D02*
D03*
X1534685D02*
D03*
X1404685D02*
D03*
X1365315D02*
D03*
D75*
X1815000Y1697598D02*
D03*
Y1772401D02*
D03*
D76*
X1417598Y1825000D02*
D03*
X1492401D02*
D03*
D77*
X1170000Y1286102D02*
D03*
Y1323898D02*
D03*
X1835000Y1053898D02*
D03*
Y1016102D02*
D03*
D78*
X1698898Y855000D02*
D03*
X1661102D02*
D03*
D79*
X1516791Y2168740D02*
D03*
Y2137244D02*
D03*
Y2105748D02*
D03*
Y2074252D02*
D03*
Y2042756D02*
D03*
Y2011260D02*
D03*
X1603209D02*
D03*
Y2042756D02*
D03*
Y2074252D02*
D03*
Y2105748D02*
D03*
Y2137244D02*
D03*
Y2168740D02*
D03*
D80*
X1560000Y2007421D02*
D03*
Y2172579D02*
D03*
D81*
X1587323Y2710157D02*
D03*
Y2529843D02*
D03*
D82*
X1319606Y2620000D02*
D03*
D83*
X1369291Y1555000D02*
D03*
X1530709D02*
D03*
D84*
X1185000Y2263346D02*
D03*
X1235000D02*
D03*
X1285000D02*
D03*
X1335000D02*
D03*
X1185000Y2056653D02*
D03*
X1235000D02*
D03*
X1285000D02*
D03*
X1335000D02*
D03*
D85*
X1930000Y2235000D02*
D03*
X1935000Y1126339D02*
D03*
D86*
X1830000Y2235000D02*
D03*
X1068858Y1126339D02*
D03*
Y1205079D02*
D03*
Y1283819D02*
D03*
Y1362559D02*
D03*
Y1441299D02*
D03*
Y1520039D02*
D03*
Y1598780D02*
D03*
Y1677520D02*
D03*
Y1756260D02*
D03*
Y1835000D02*
D03*
X1935000D02*
D03*
Y1756260D02*
D03*
Y1677520D02*
D03*
Y1598780D02*
D03*
Y1520039D02*
D03*
Y1441299D02*
D03*
Y1362559D02*
D03*
Y1283819D02*
D03*
Y1205079D02*
D03*
D87*
X1755000Y735000D02*
D03*
X1655000D02*
D03*
X1555000D02*
D03*
D88*
X1455000D02*
D03*
D89*
X1865000Y2679032D02*
D03*
Y2521551D02*
D03*
Y2600291D02*
D03*
D90*
Y2442811D02*
D03*
D91*
X1065000Y2760000D02*
D03*
Y2670000D02*
D03*
X1185000Y2950000D02*
D03*
X1520000Y990000D02*
D03*
X1205000Y845000D02*
D03*
X1820000Y1230000D02*
D03*
Y1275000D02*
D03*
X1155000Y1370000D02*
D03*
X1225000Y1345000D02*
D03*
X1220000Y1385000D02*
D03*
X1218910Y1436090D02*
D03*
X1490000Y1105000D02*
D03*
X1525000D02*
D03*
X1600000D02*
D03*
X1564552Y1105448D02*
D03*
X1680000Y2755000D02*
D03*
X1605000Y2245000D02*
D03*
X1475000Y2240000D02*
D03*
X1405000Y2130000D02*
D03*
X1072064Y2273000D02*
D03*
Y2221667D02*
D03*
Y2315000D02*
D03*
X1245000Y2550000D02*
D03*
X1380000D02*
D03*
X1375000Y2685000D02*
D03*
X1240000D02*
D03*
X1072064Y2175000D02*
D03*
X1695000Y2260000D02*
D03*
X1630000Y2530000D02*
D03*
D92*
X1300000Y1455000D02*
D03*
X1165000Y1230000D02*
D03*
X1640834Y1035834D02*
D03*
X1695000Y1480000D02*
D03*
X1420000Y1275000D02*
D03*
X1380000Y1925000D02*
D03*
X1730000D02*
D03*
X1360000Y1275000D02*
D03*
X1375000Y1070000D02*
D03*
X1340000Y1975000D02*
D03*
X1185000D02*
D03*
X1290000Y2165000D02*
D03*
X1235000Y2125000D02*
D03*
X1550591Y1925000D02*
D03*
X1075000Y875000D02*
D03*
X1805000Y1575000D02*
D03*
X1770000Y855000D02*
D03*
X1655000Y1280000D02*
D03*
X1590000Y1315000D02*
D03*
X1410000Y1015000D02*
D03*
X1405000Y840000D02*
D03*
X1470000Y1015000D02*
D03*
X1450000Y1710000D02*
D03*
D93*
X1685000Y1815000D02*
D03*
X1625000Y1795000D02*
D03*
D94*
X1910000Y3005000D02*
D03*
X1075000D02*
D03*
X1080000Y730000D02*
D03*
X1915000D02*
D03*
%TF.MD5,5088bb7bc52058e223e886b9921eadd3*%
M02*
