%TF.GenerationSoftware,Altium Limited,Altium Designer,20.0.9 (164)*%
G04 Layer_Physical_Order=2*
G04 Layer_Color=32768*
%FSLAX26Y26*%
%MOIN*%
%TF.FileFunction,Copper,L2,Inr,Plane*%
%TF.Part,Single*%
G01*
G75*
%TA.AperFunction,ViaPad*%
%ADD32C,0.050000*%
%TA.AperFunction,NonConductor*%
%ADD34C,0.040000*%
%TA.AperFunction,ComponentPad*%
%ADD35C,0.075039*%
%ADD36C,0.071496*%
G04:AMPARAMS|DCode=37|XSize=91.496mil|YSize=91.496mil|CornerRadius=0mil|HoleSize=0mil|Usage=FLASHONLY|Rotation=0.000|XOffset=0mil|YOffset=0mil|HoleType=Round|Shape=Relief|Width=10mil|Gap=10mil|Entries=4|*
%AMTHD37*
7,0,0,0.091496,0.071496,0.010000,45*
%
%ADD37THD37*%
G04:AMPARAMS|DCode=38|XSize=100.157mil|YSize=100.157mil|CornerRadius=0mil|HoleSize=0mil|Usage=FLASHONLY|Rotation=0.000|XOffset=0mil|YOffset=0mil|HoleType=Round|Shape=Relief|Width=10mil|Gap=10mil|Entries=4|*
%AMTHD38*
7,0,0,0.100157,0.080157,0.010000,45*
%
%ADD38THD38*%
%ADD39C,0.080157*%
%ADD40C,0.079370*%
%TA.AperFunction,ViaPad*%
G04:AMPARAMS|DCode=41|XSize=70mil|YSize=70mil|CornerRadius=0mil|HoleSize=0mil|Usage=FLASHONLY|Rotation=0.000|XOffset=0mil|YOffset=0mil|HoleType=Round|Shape=Relief|Width=10mil|Gap=10mil|Entries=4|*
%AMTHD41*
7,0,0,0.070000,0.050000,0.010000,45*
%
%ADD41THD41*%
G04:AMPARAMS|DCode=42|XSize=80mil|YSize=80mil|CornerRadius=0mil|HoleSize=0mil|Usage=FLASHONLY|Rotation=0.000|XOffset=0mil|YOffset=0mil|HoleType=Round|Shape=Relief|Width=10mil|Gap=10mil|Entries=4|*
%AMTHD42*
7,0,0,0.080000,0.060000,0.010000,45*
%
%ADD42THD42*%
%ADD43C,0.060000*%
%ADD44C,0.068000*%
%ADD45C,0.160000*%
D32*
X1065000Y2760000D02*
D03*
X1185000Y2950000D02*
D03*
X1520000Y990000D02*
D03*
X1205000Y845000D02*
D03*
X1820000Y1230000D02*
D03*
Y1275000D02*
D03*
X1155000Y1370000D02*
D03*
X1225000Y1345000D02*
D03*
X1220000Y1385000D02*
D03*
X1218910Y1436090D02*
D03*
X1490000Y1105000D02*
D03*
X1525000D02*
D03*
X1600000D02*
D03*
X1564552Y1105448D02*
D03*
X1680000Y2755000D02*
D03*
X1605000Y2245000D02*
D03*
X1405000Y2130000D02*
D03*
X1072064Y2273000D02*
D03*
Y2221667D02*
D03*
Y2315000D02*
D03*
X1245000Y2550000D02*
D03*
X1380000D02*
D03*
X1375000Y2685000D02*
D03*
X1240000D02*
D03*
X1072064Y2175000D02*
D03*
X1695000Y2260000D02*
D03*
D34*
X1000000Y645000D02*
Y3085000D01*
X2000000D01*
Y645000D02*
Y3085000D01*
X1000000Y645000D02*
X2000000D01*
D35*
X1930000Y2235000D02*
D03*
X1830000D02*
D03*
D36*
X1068858Y1126339D02*
D03*
Y1205079D02*
D03*
Y1283819D02*
D03*
Y1362559D02*
D03*
Y1441299D02*
D03*
Y1520039D02*
D03*
Y1598780D02*
D03*
Y1677520D02*
D03*
Y1756260D02*
D03*
Y1835000D02*
D03*
X1935000D02*
D03*
Y1756260D02*
D03*
Y1677520D02*
D03*
Y1598780D02*
D03*
Y1520039D02*
D03*
Y1441299D02*
D03*
Y1362559D02*
D03*
Y1283819D02*
D03*
Y1205079D02*
D03*
D37*
Y1126339D02*
D03*
D38*
X1755000Y735000D02*
D03*
D39*
X1655000D02*
D03*
X1555000D02*
D03*
X1455000D02*
D03*
D40*
X1865000Y2679032D02*
D03*
Y2442811D02*
D03*
Y2521551D02*
D03*
Y2600291D02*
D03*
D41*
X1065000Y2670000D02*
D03*
X1475000Y2240000D02*
D03*
X1630000Y2530000D02*
D03*
D42*
X1300000Y1455000D02*
D03*
X1380000Y1925000D02*
D03*
X1730000D02*
D03*
X1375000Y1070000D02*
D03*
X1235000Y2125000D02*
D03*
X1805000Y1575000D02*
D03*
X1590000Y1315000D02*
D03*
D43*
X1165000Y1230000D02*
D03*
X1640834Y1035834D02*
D03*
X1695000Y1480000D02*
D03*
X1420000Y1275000D02*
D03*
X1360000D02*
D03*
X1340000Y1975000D02*
D03*
X1185000D02*
D03*
X1290000Y2165000D02*
D03*
X1550591Y1925000D02*
D03*
X1075000Y875000D02*
D03*
X1770000Y855000D02*
D03*
X1655000Y1280000D02*
D03*
X1410000Y1015000D02*
D03*
X1405000Y840000D02*
D03*
X1470000Y1015000D02*
D03*
X1450000Y1710000D02*
D03*
D44*
X1685000Y1815000D02*
D03*
X1625000Y1795000D02*
D03*
D45*
X1910000Y3005000D02*
D03*
X1075000D02*
D03*
X1080000Y730000D02*
D03*
X1915000D02*
D03*
%TF.MD5,a5a6304db8916a9e8d7bb67640efaa47*%
M02*
